<svg xmlns="http://www.w3.org/2000/svg" xmlns:xlink="http://www.w3.org/1999/xlink" width="602.97" height="603.985" viewBox="0 0 602.97 603.985">
  <defs>
    <linearGradient id="linear-gradient" x1="-20.337" y1="-5.805" x2="-18.935" y2="-5.801" gradientUnits="objectBoundingBox">
      <stop offset="0" stop-color="#727176" stop-opacity="0.702"/>
      <stop offset="0.19" stop-color="#7d7c81" stop-opacity="0.651"/>
      <stop offset="0.45" stop-color="#9c9b9e" stop-opacity="0.49"/>
      <stop offset="0.76" stop-color="#cecdcf" stop-opacity="0.239"/>
      <stop offset="1" stop-color="#fff" stop-opacity="0"/>
    </linearGradient>
    <radialGradient id="radial-gradient" cx="0.21" cy="0.074" r="1.19" gradientTransform="translate(0)" gradientUnits="objectBoundingBox">
      <stop offset="0.04" stop-color="#d8d9dd"/>
      <stop offset="0.55" stop-color="#edeef0"/>
      <stop offset="1" stop-color="#f7f7f8"/>
    </radialGradient>
    <radialGradient id="radial-gradient-2" cx="0.082" cy="0.026" r="1.455" xlink:href="#radial-gradient"/>
    <radialGradient id="radial-gradient-3" cx="0.082" cy="0.026" r="1.455" xlink:href="#radial-gradient"/>
    <radialGradient id="radial-gradient-4" cx="0.076" cy="0.019" r="1.463" gradientTransform="translate(0)" gradientUnits="objectBoundingBox">
      <stop offset="0" stop-color="#f7f7f8"/>
      <stop offset="0.51" stop-color="#fbfbfb"/>
      <stop offset="0.72" stop-color="#fff"/>
    </radialGradient>
  </defs>
  <g id="Grupo_55244" data-name="Grupo 55244" transform="translate(-381.515 -1293)">
    <path id="Trazado_119377" data-name="Trazado 119377" d="M437.285,95.723,342,191.018a166.114,166.114,0,0,0-117.814-48.8V7.47a300.487,300.487,0,0,1,213.1,88.253Z" transform="translate(459.057 1285.655)" fill="#7d97f4"/>
    <path id="Trazado_119379" data-name="Trazado 119379" d="M375.042,49.66,295.18,158.236a166.114,166.114,0,0,1,66.012,109.118L494.44,247.044A300.459,300.459,0,0,0,375.042,49.66Z" transform="translate(486.683 1302.073)" fill="#e8b7b5"/>
    <path id="Trazado_119381" data-name="Trazado 119381" d="M468.3,154.81,340.4,197.36a166.017,166.017,0,0,1-9.127,127.19l120.481,60.359A300.5,300.5,0,0,0,468.3,154.81Z" transform="translate(500.727 1342.993)" fill="#df6f63"/>
    <path id="Trazado_119383" data-name="Trazado 119383" d="M354.879,471.831,285.63,356.2a166.156,166.156,0,0,0,76-102.408l130.733,32.784A300.5,300.5,0,0,1,354.879,471.831Z" transform="translate(482.967 1381.51)" fill="#388e87"/>
    <path id="Trazado_119385" data-name="Trazado 119385" d="M426.554,417.662,338.274,315.81A166.087,166.087,0,0,1,217.279,356.1l-9.6,134.456a300.5,300.5,0,0,0,218.874-72.889Z" transform="translate(452.632 1405.645)" fill="#1d158e"/>
    <path id="Trazado_119387" data-name="Trazado 119387" d="M70.44,405.24l95.31-95.31a166.17,166.17,0,0,0,117.828,48.8V493.478A300.514,300.514,0,0,1,70.44,405.24Z" transform="translate(399.226 1403.357)" fill="#7d97f4"/>
    <path id="Trazado_119388" data-name="Trazado 119388" d="M199.76,478.6a306.559,306.559,0,0,0,33.492,1.861V345.714a167.572,167.572,0,0,1-27.26-2.228Z" transform="translate(449.55 1416.416)" fill="url(#linear-gradient)"/>
    <path id="Trazado_119389" data-name="Trazado 119389" d="M128.817,460.854l79.848-108.576a166.1,166.1,0,0,1-66-109.118L9.42,263.469a300.376,300.376,0,0,0,119.4,197.384Z" transform="translate(375.479 1377.373)" fill="#e8b7b5"/>
    <path id="Trazado_119391" data-name="Trazado 119391" d="M22.468,359.179l127.9-42.55a166.073,166.073,0,0,1,9.113-127.19L38.957,129.08a300.5,300.5,0,0,0-16.489,230.1Z" transform="translate(374.531 1332.979)" fill="#df6f63"/>
    <path id="Trazado_119393" data-name="Trazado 119393" d="M151.074,38.78l69.249,115.6a166.184,166.184,0,0,0-76,102.408L13.59,224.009A300.459,300.459,0,0,1,151.074,38.78Z" transform="translate(377.103 1297.839)" fill="#388e87"/>
    <path id="Trazado_119395" data-name="Trazado 119395" d="M82.8,81.033,171.067,182.9c32.228-27.936,66.846-45.953,112.743-42.675L282.06,7.38C204.1,11.1,141.089,30.468,82.8,81.033Z" transform="translate(404.036 1285.62)" fill="#1d158e"/>
    <path id="Trazado_119397" data-name="Trazado 119397" d="M272.5,100.22A172.532,172.532,0,1,0,445.035,272.752,172.532,172.532,0,0,0,272.5,100.22Zm0,335.229a162.693,162.693,0,1,1,.009,0Z" transform="translate(410.717 1321.748)" fill="url(#radial-gradient)"/>
    <path id="Trazado_119398" data-name="Trazado 119398" d="M396.458,258.723a136.137,136.137,0,1,0-85.5,126.477,135.637,135.637,0,0,0,85.5-126.477Z" transform="translate(420.787 1331.166)" fill="url(#radial-gradient-2)"/>
    <path id="Trazado_119399" data-name="Trazado 119399" d="M396.458,261.993a136.137,136.137,0,1,0-85.5,126.477,135.637,135.637,0,0,0,85.5-126.477Z" transform="translate(420.787 1332.439)" fill="url(#radial-gradient-3)"/>
    <path id="Trazado_119400" data-name="Trazado 119400" d="M356.933,253.552a103.543,103.543,0,1,0,0,.014Z" transform="translate(429.777 1340.949)" fill="#fff"/>
    <path id="Trazado_119401" data-name="Trazado 119401" d="M356.19,252.777A102.67,102.67,0,1,0,254.975,356.884,102.666,102.666,0,0,0,356.19,252.777Z" transform="translate(430.521 1341.725)" fill="url(#radial-gradient-4)"/>
    <path id="Trazado_119402" data-name="Trazado 119402" d="M341.254,191.58A103.992,103.992,0,0,1,162.22,295.141,103.672,103.672,0,0,0,341.254,191.58Z" transform="translate(434.941 1357.302)" fill="#edeef0"/>
    <path id="Trazado_120550" data-name="Trazado 120550" d="M-22.493-5.112l4.673-15.505h4.729L-20.269,0H-24.7l-7.151-20.617h4.715ZM-4.347,0a4.544,4.544,0,0,1-.411-1.374A4.952,4.952,0,0,1-8.623.283a5.44,5.44,0,0,1-3.731-1.3A4.19,4.19,0,0,1-13.834-4.3a4.33,4.33,0,0,1,1.805-3.738A8.909,8.909,0,0,1-6.811-9.36h1.883v-.878a2.525,2.525,0,0,0-.545-1.7,2.145,2.145,0,0,0-1.72-.637,2.438,2.438,0,0,0-1.621.5A1.684,1.684,0,0,0-9.4-10.719h-4.092a4.111,4.111,0,0,1,.821-2.464,5.429,5.429,0,0,1,2.322-1.777,8.463,8.463,0,0,1,3.37-.644,6.687,6.687,0,0,1,4.5,1.423,4.978,4.978,0,0,1,1.664,4V-3.54a7.325,7.325,0,0,0,.609,3.3V0ZM-7.731-2.846a3.525,3.525,0,0,0,1.671-.4A2.651,2.651,0,0,0-4.927-4.333V-6.967H-6.457q-3.073,0-3.271,2.124l-.014.241A1.638,1.638,0,0,0-9.2-3.342,2.09,2.09,0,0,0-7.731-2.846ZM5.487,0H1.381V-21.75H5.487ZM7.065-7.8a9.086,9.086,0,0,1,.878-4.064,6.427,6.427,0,0,1,2.528-2.761A7.374,7.374,0,0,1,14.3-15.6a6.977,6.977,0,0,1,5.062,1.9,7.615,7.615,0,0,1,2.188,5.154L21.58-7.5a8.008,8.008,0,0,1-1.968,5.657A6.842,6.842,0,0,1,14.33.283,6.876,6.876,0,0,1,9.041-1.841,8.149,8.149,0,0,1,7.065-7.618Zm4.092.291a5.727,5.727,0,0,0,.821,3.34A2.709,2.709,0,0,0,14.33-3.016a2.716,2.716,0,0,0,2.322-1.142,6.267,6.267,0,0,0,.835-3.652,5.67,5.67,0,0,0-.835-3.319A2.716,2.716,0,0,0,14.3-12.305a2.671,2.671,0,0,0-2.322,1.17A6.372,6.372,0,0,0,11.158-7.512Zm20.4-3.972a11.118,11.118,0,0,0-1.473-.113q-2.322,0-3.044,1.572V0H22.946V-15.321h3.866l.113,1.827a3.792,3.792,0,0,1,3.413-2.11,4.288,4.288,0,0,1,1.274.184ZM-45.923,30.752h-7.448L-54.788,35H-59.3l7.675-20.617h3.937L-39.976,35h-4.517Zm-6.3-3.441h5.154l-2.591-7.717Zm12.156-.085a8.979,8.979,0,0,1,1.678-5.678A5.437,5.437,0,0,1-33.866,19.4a4.768,4.768,0,0,1,3.922,1.728l.17-1.444h3.71V34.49a6.548,6.548,0,0,1-.913,3.5,5.866,5.866,0,0,1-2.57,2.266,9.035,9.035,0,0,1-3.88.779,8.4,8.4,0,0,1-3.285-.673,5.831,5.831,0,0,1-2.421-1.735l1.813-2.492a4.794,4.794,0,0,0,3.71,1.713,3.509,3.509,0,0,0,2.535-.871,3.266,3.266,0,0,0,.906-2.471v-.821a4.733,4.733,0,0,1-3.724,1.6,5.423,5.423,0,0,1-4.468-2.159A8.977,8.977,0,0,1-40.069,27.4Zm4.092.3a5.591,5.591,0,0,0,.835,3.269,2.658,2.658,0,0,0,2.294,1.184,2.842,2.842,0,0,0,2.676-1.4V24.127a2.835,2.835,0,0,0-2.648-1.4,2.674,2.674,0,0,0-2.315,1.205A6.3,6.3,0,0,0-35.976,27.531Zm20.511-4.015a11.118,11.118,0,0,0-1.473-.113q-2.322,0-3.044,1.572V35h-4.092V19.679h3.866l.113,1.827a3.792,3.792,0,0,1,3.413-2.11,4.288,4.288,0,0,1,1.274.184Zm7.6,11.767a7.521,7.521,0,0,1-5.487-2.067,7.349,7.349,0,0,1-2.117-5.508v-.4a9.255,9.255,0,0,1,.892-4.128,6.547,6.547,0,0,1,2.528-2.8A7.094,7.094,0,0,1-8.322,19.4a6.359,6.359,0,0,1,4.949,1.982A8.055,8.055,0,0,1-1.568,27V28.67h-9.756a3.8,3.8,0,0,0,1.2,2.407,3.617,3.617,0,0,0,2.528.906,4.417,4.417,0,0,0,3.7-1.713l2.011,2.251a6.143,6.143,0,0,1-2.492,2.032A8.177,8.177,0,0,1-7.869,35.283Zm-.467-12.588a2.557,2.557,0,0,0-1.975.825,4.272,4.272,0,0,0-.97,2.361H-5.59v-.327a3.047,3.047,0,0,0-.736-2.112A2.638,2.638,0,0,0-8.337,22.695Zm7.342,4.531A8.979,8.979,0,0,1,.683,21.548,5.437,5.437,0,0,1,5.207,19.4,4.768,4.768,0,0,1,9.13,21.123l.17-1.444h3.71V34.49a6.548,6.548,0,0,1-.913,3.5,5.866,5.866,0,0,1-2.57,2.266,9.035,9.035,0,0,1-3.88.779,8.4,8.4,0,0,1-3.285-.673A5.831,5.831,0,0,1-.06,38.625l1.813-2.492a4.794,4.794,0,0,0,3.71,1.713A3.509,3.509,0,0,0,8,36.975,3.266,3.266,0,0,0,8.9,34.5v-.821a4.733,4.733,0,0,1-3.724,1.6A5.423,5.423,0,0,1,.711,33.124,8.977,8.977,0,0,1-.995,27.4Zm4.092.3A5.591,5.591,0,0,0,3.933,30.8a2.658,2.658,0,0,0,2.294,1.184A2.842,2.842,0,0,0,8.9,30.58V24.127a2.835,2.835,0,0,0-2.648-1.4A2.674,2.674,0,0,0,3.94,23.929,6.3,6.3,0,0,0,3.1,27.531ZM23.877,35a4.544,4.544,0,0,1-.411-1.374A4.952,4.952,0,0,1,19.6,35.283a5.44,5.44,0,0,1-3.731-1.3A4.19,4.19,0,0,1,14.39,30.7,4.33,4.33,0,0,1,16.2,26.957a8.909,8.909,0,0,1,5.218-1.317H23.3v-.878a2.525,2.525,0,0,0-.545-1.7,2.145,2.145,0,0,0-1.72-.637,2.438,2.438,0,0,0-1.621.5,1.684,1.684,0,0,0-.588,1.359H14.729a4.111,4.111,0,0,1,.821-2.464,5.429,5.429,0,0,1,2.322-1.777,8.463,8.463,0,0,1,3.37-.644,6.687,6.687,0,0,1,4.5,1.423,4.978,4.978,0,0,1,1.664,4V31.46a7.325,7.325,0,0,0,.609,3.3V35Zm-3.384-2.846a3.525,3.525,0,0,0,1.671-.4A2.651,2.651,0,0,0,23.3,30.667V28.033H21.767q-3.073,0-3.271,2.124l-.014.241a1.638,1.638,0,0,0,.538,1.26A2.09,2.09,0,0,0,20.493,32.154Zm8.262-4.928a9.233,9.233,0,0,1,1.607-5.707,5.215,5.215,0,0,1,4.4-2.124,4.693,4.693,0,0,1,3.7,1.671V13.25h4.106V35h-3.7l-.2-1.628a4.816,4.816,0,0,1-3.937,1.912,5.2,5.2,0,0,1-4.34-2.131A9.531,9.531,0,0,1,28.755,27.226Zm4.092.3a6.048,6.048,0,0,0,.75,3.3,2.445,2.445,0,0,0,2.181,1.149,2.738,2.738,0,0,0,2.676-1.6V24.326a2.7,2.7,0,0,0-2.648-1.6Q32.847,22.723,32.847,27.531ZM43.941,27.2a9.086,9.086,0,0,1,.878-4.064,6.427,6.427,0,0,1,2.528-2.761,7.374,7.374,0,0,1,3.83-.977,6.977,6.977,0,0,1,5.062,1.9,7.615,7.615,0,0,1,2.188,5.154l.028,1.048a8.008,8.008,0,0,1-1.968,5.657,6.842,6.842,0,0,1-5.282,2.131,6.876,6.876,0,0,1-5.289-2.124,8.149,8.149,0,0,1-1.975-5.777Zm4.092.291a5.727,5.727,0,0,0,.821,3.34,2.95,2.95,0,0,0,4.673.014,6.267,6.267,0,0,0,.835-3.652,5.67,5.67,0,0,0-.835-3.319,2.716,2.716,0,0,0-2.351-1.177,2.671,2.671,0,0,0-2.322,1.17A6.372,6.372,0,0,0,48.033,27.488Z" transform="translate(683 1577.715)" fill="#87868a"/>
    <path id="Trazado_120546" data-name="Trazado 120546" d="M3.349-5.288V0H1.568V-13.508H6.55a5.005,5.005,0,0,1,3.474,1.132,3.837,3.837,0,0,1,1.257,3A3.786,3.786,0,0,1,10.052-6.35,5.229,5.229,0,0,1,6.531-5.288Zm0-1.457h3.2a3.2,3.2,0,0,0,2.189-.674A2.464,2.464,0,0,0,9.5-9.365,2.545,2.545,0,0,0,8.739-11.3a3,3,0,0,0-2.087-.753h-3.3ZM18.137-8.5a5.143,5.143,0,0,0-.844-.065A2.262,2.262,0,0,0,15-7.125V0H13.285V-10.038h1.67l.028,1.16a2.672,2.672,0,0,1,2.394-1.345,1.753,1.753,0,0,1,.761.13ZM23.514.186a4.386,4.386,0,0,1-3.321-1.341,4.976,4.976,0,0,1-1.28-3.586v-.315a6.024,6.024,0,0,1,.571-2.667,4.451,4.451,0,0,1,1.6-1.837,4.012,4.012,0,0,1,2.222-.663,3.759,3.759,0,0,1,3.043,1.29,5.583,5.583,0,0,1,1.085,3.692v.714h-6.8a3.568,3.568,0,0,0,.867,2.4,2.727,2.727,0,0,0,2.111.914,2.989,2.989,0,0,0,1.54-.371,3.87,3.87,0,0,0,1.1-.983l1.048.816A4.215,4.215,0,0,1,23.514.186Zm-.213-9a2.289,2.289,0,0,0-1.744.756,3.675,3.675,0,0,0-.872,2.12h5.028v-.13a3.269,3.269,0,0,0-.705-2.027A2.155,2.155,0,0,0,23.3-8.813Zm10.14,7.6a2.472,2.472,0,0,0,1.6-.557,1.958,1.958,0,0,0,.761-1.392H37.43a3.112,3.112,0,0,1-.594,1.642A3.911,3.911,0,0,1,35.375-.278,4.216,4.216,0,0,1,33.44.186a4.135,4.135,0,0,1-3.261-1.368,5.45,5.45,0,0,1-1.211-3.743v-.288a6.043,6.043,0,0,1,.538-2.607,4.1,4.1,0,0,1,1.545-1.772,4.388,4.388,0,0,1,2.38-.631,4.026,4.026,0,0,1,2.806,1.011A3.614,3.614,0,0,1,37.43-6.587H35.806a2.365,2.365,0,0,0-.738-1.6,2.294,2.294,0,0,0-1.637-.626,2.4,2.4,0,0,0-2.027.942,4.422,4.422,0,0,0-.719,2.723v.325A4.334,4.334,0,0,0,31.4-2.152,2.414,2.414,0,0,0,33.44-1.215ZM41.224,0H39.508V-10.038h1.716ZM39.369-12.7a1.024,1.024,0,0,1,.255-.705.958.958,0,0,1,.756-.288.973.973,0,0,1,.761.288,1.014,1.014,0,0,1,.26.705.98.98,0,0,1-.26.7.99.99,0,0,1-.761.278A.975.975,0,0,1,39.624-12,.991.991,0,0,1,39.369-12.7Zm4.147,7.589a5.929,5.929,0,0,1,.58-2.653A4.325,4.325,0,0,1,45.71-9.583a4.394,4.394,0,0,1,2.361-.64A4.233,4.233,0,0,1,51.387-8.8a5.461,5.461,0,0,1,1.266,3.776v.121a5.981,5.981,0,0,1-.561,2.63,4.262,4.262,0,0,1-1.6,1.814,4.445,4.445,0,0,1-2.4.649,4.223,4.223,0,0,1-3.307-1.419,5.433,5.433,0,0,1-1.266-3.757Zm1.726.2a4.294,4.294,0,0,0,.775,2.681,2.479,2.479,0,0,0,2.073,1.011A2.464,2.464,0,0,0,50.167-2.24a4.7,4.7,0,0,0,.77-2.871,4.287,4.287,0,0,0-.784-2.677,2.492,2.492,0,0,0-2.083-1.025A2.465,2.465,0,0,0,46.02-7.8,4.661,4.661,0,0,0,45.241-4.908Z" transform="translate(726.88 1371.483)" fill="#fff"/>
    <path id="Trazado_120547" data-name="Trazado 120547" d="M11.5-4.286A4.97,4.97,0,0,1,9.922-.979,5.184,5.184,0,0,1,6.383.186,4.76,4.76,0,0,1,2.547-1.531,6.905,6.905,0,0,1,1.1-6.123v-1.3a7.7,7.7,0,0,1,.673-3.312,5.024,5.024,0,0,1,1.906-2.194,5.308,5.308,0,0,1,2.857-.765,4.881,4.881,0,0,1,3.451,1.2A5.029,5.029,0,0,1,11.5-9.166H9.713a3.881,3.881,0,0,0-1.007-2.345,3.046,3.046,0,0,0-2.166-.726,3.187,3.187,0,0,0-2.677,1.263,5.8,5.8,0,0,0-.969,3.593v1.309a5.959,5.959,0,0,0,.918,3.5,2.968,2.968,0,0,0,2.57,1.3A3.428,3.428,0,0,0,8.66-1.944,3.733,3.733,0,0,0,9.713-4.286ZM19.863-.993A3.646,3.646,0,0,1,16.922.186a3.12,3.12,0,0,1-2.445-.932,4.036,4.036,0,0,1-.849-2.76v-6.531h1.716v6.485q0,2.282,1.855,2.282a2.569,2.569,0,0,0,2.616-1.466v-7.3h1.716V0H19.9Zm10.122-1.67a1.263,1.263,0,0,0-.524-1.081,5.045,5.045,0,0,0-1.828-.663,8.641,8.641,0,0,1-2.069-.668A2.943,2.943,0,0,1,24.432-6a2.219,2.219,0,0,1-.366-1.28A2.6,2.6,0,0,1,25.109-9.37a4.076,4.076,0,0,1,2.667-.854,4.194,4.194,0,0,1,2.769.881,2.8,2.8,0,0,1,1.062,2.254H29.882a1.549,1.549,0,0,0-.6-1.215,2.242,2.242,0,0,0-1.508-.51,2.346,2.346,0,0,0-1.466.408,1.285,1.285,0,0,0-.529,1.067,1.041,1.041,0,0,0,.492.937,6.05,6.05,0,0,0,1.777.6,9.257,9.257,0,0,1,2.083.687,3.038,3.038,0,0,1,1.183.96A2.361,2.361,0,0,1,31.7-2.783,2.569,2.569,0,0,1,30.625-.626a4.514,4.514,0,0,1-2.792.812A5.055,5.055,0,0,1,25.7-.241a3.47,3.47,0,0,1-1.452-1.192,2.873,2.873,0,0,1-.524-1.656h1.716a1.777,1.777,0,0,0,.691,1.368,2.681,2.681,0,0,0,1.7.506A2.768,2.768,0,0,0,29.4-1.61,1.212,1.212,0,0,0,29.984-2.663Zm6.281-9.806v2.431h1.874v1.327H36.265v6.233a1.393,1.393,0,0,0,.25.906,1.054,1.054,0,0,0,.854.3,4.155,4.155,0,0,0,.816-.111V0a5,5,0,0,1-1.317.184,2.137,2.137,0,0,1-1.735-.7,2.989,2.989,0,0,1-.584-1.976V-8.711H32.721v-1.327h1.828v-2.431ZM39.5-5.112a5.929,5.929,0,0,1,.58-2.653A4.325,4.325,0,0,1,41.7-9.583a4.394,4.394,0,0,1,2.361-.64A4.233,4.233,0,0,1,47.375-8.8a5.461,5.461,0,0,1,1.266,3.776v.121a5.981,5.981,0,0,1-.561,2.63,4.262,4.262,0,0,1-1.6,1.814,4.445,4.445,0,0,1-2.4.649,4.223,4.223,0,0,1-3.307-1.419A5.433,5.433,0,0,1,39.5-4.991Zm1.726.2A4.294,4.294,0,0,0,42-2.227a2.479,2.479,0,0,0,2.073,1.011A2.464,2.464,0,0,0,46.155-2.24a4.7,4.7,0,0,0,.77-2.871,4.287,4.287,0,0,0-.784-2.677,2.492,2.492,0,0,0-2.083-1.025A2.465,2.465,0,0,0,42.008-7.8,4.661,4.661,0,0,0,41.229-4.908Zm11.179-5.13.046,1.113a3.707,3.707,0,0,1,2.978-1.3A2.87,2.87,0,0,1,58.3-8.609a3.8,3.8,0,0,1,1.3-1.169,3.85,3.85,0,0,1,1.9-.445q3.3,0,3.358,3.5V0H63.142V-6.624a2.3,2.3,0,0,0-.492-1.61A2.165,2.165,0,0,0,61-8.767a2.276,2.276,0,0,0-1.586.571,2.315,2.315,0,0,0-.733,1.535V0H56.954V-6.578a1.915,1.915,0,0,0-2.143-2.189A2.3,2.3,0,0,0,52.5-7.329V0H50.784V-10.038ZM69.311,0H67.595V-10.038h1.716ZM67.456-12.7a1.025,1.025,0,0,1,.255-.705.958.958,0,0,1,.756-.288.973.973,0,0,1,.761.288,1.014,1.014,0,0,1,.26.705.98.98,0,0,1-.26.7.99.99,0,0,1-.761.278A.975.975,0,0,1,67.711-12,.991.991,0,0,1,67.456-12.7ZM73.671-1.4h5.873V0H71.575V-1.262l5.539-7.357H71.658v-1.419h7.607v1.215Zm14,1.4a3.605,3.605,0,0,1-.241-1.058A3.829,3.829,0,0,1,84.572.186a3.543,3.543,0,0,1-2.435-.84,2.716,2.716,0,0,1-.951-2.129,2.838,2.838,0,0,1,1.192-2.435,5.621,5.621,0,0,1,3.354-.867H87.4v-.789a1.928,1.928,0,0,0-.538-1.433,2.163,2.163,0,0,0-1.586-.533,2.5,2.5,0,0,0-1.54.464,1.367,1.367,0,0,0-.622,1.123H81.39a2.369,2.369,0,0,1,.533-1.452,3.641,3.641,0,0,1,1.447-1.109,4.869,4.869,0,0,1,2.009-.408,3.968,3.968,0,0,1,2.718.867,3.129,3.129,0,0,1,1.021,2.389v4.62a5.649,5.649,0,0,0,.353,2.2V0ZM84.823-1.308a3.016,3.016,0,0,0,1.531-.417A2.525,2.525,0,0,0,87.4-2.811v-2.06H86.057q-3.154,0-3.154,1.846a1.562,1.562,0,0,0,.538,1.262A2.068,2.068,0,0,0,84.823-1.308Zm11.012.093a2.472,2.472,0,0,0,1.6-.557A1.958,1.958,0,0,0,98.2-3.164h1.624a3.112,3.112,0,0,1-.594,1.642A3.911,3.911,0,0,1,97.769-.278a4.216,4.216,0,0,1-1.934.464,4.135,4.135,0,0,1-3.261-1.368,5.45,5.45,0,0,1-1.211-3.743v-.288A6.043,6.043,0,0,1,91.9-7.821a4.1,4.1,0,0,1,1.545-1.772,4.388,4.388,0,0,1,2.38-.631,4.026,4.026,0,0,1,2.806,1.011,3.614,3.614,0,0,1,1.192,2.625H98.2a2.365,2.365,0,0,0-.738-1.6,2.294,2.294,0,0,0-1.637-.626,2.4,2.4,0,0,0-2.027.942,4.422,4.422,0,0,0-.719,2.723v.325a4.334,4.334,0,0,0,.714,2.672A2.414,2.414,0,0,0,95.835-1.215ZM103.619,0H101.9V-10.038h1.716Zm-1.855-12.7a1.025,1.025,0,0,1,.255-.705.958.958,0,0,1,.756-.288.973.973,0,0,1,.761.288,1.014,1.014,0,0,1,.26.705.98.98,0,0,1-.26.7.99.99,0,0,1-.761.278.975.975,0,0,1-.756-.278A.991.991,0,0,1,101.763-12.7Zm4.147,7.589a5.929,5.929,0,0,1,.58-2.653A4.326,4.326,0,0,1,108.1-9.583a4.394,4.394,0,0,1,2.361-.64A4.233,4.233,0,0,1,113.782-8.8a5.461,5.461,0,0,1,1.266,3.776v.121a5.981,5.981,0,0,1-.561,2.63,4.262,4.262,0,0,1-1.6,1.814,4.445,4.445,0,0,1-2.4.649,4.223,4.223,0,0,1-3.307-1.419,5.433,5.433,0,0,1-1.266-3.757Zm1.726.2a4.294,4.294,0,0,0,.775,2.681,2.479,2.479,0,0,0,2.073,1.011,2.464,2.464,0,0,0,2.078-1.025,4.7,4.7,0,0,0,.77-2.871,4.287,4.287,0,0,0-.784-2.677,2.492,2.492,0,0,0-2.083-1.025,2.465,2.465,0,0,0-2.05,1.011A4.661,4.661,0,0,0,107.636-4.908Zm3.609-9.342h2.078l-2.486,2.728-1.382,0Zm7.58,4.212.056,1.262a3.658,3.658,0,0,1,3.006-1.447q3.182,0,3.21,3.59V0h-1.716V-6.643a2.311,2.311,0,0,0-.5-1.6,1.989,1.989,0,0,0-1.517-.52,2.477,2.477,0,0,0-1.466.445,3.024,3.024,0,0,0-.983,1.169V0H117.2V-10.038Z" transform="translate(534.425 1379.899)" fill="#fff"/>
    <path id="Trazado_120548" data-name="Trazado 120548" d="M11.949,0H10.159l-6.8-10.409V0H1.568V-13.508H3.358L10.177-3.052V-13.508h1.772Zm2.44-5.112a5.929,5.929,0,0,1,.58-2.653,4.325,4.325,0,0,1,1.614-1.818,4.394,4.394,0,0,1,2.361-.64A4.233,4.233,0,0,1,22.261-8.8a5.461,5.461,0,0,1,1.266,3.776v.121a5.981,5.981,0,0,1-.561,2.63,4.262,4.262,0,0,1-1.6,1.814,4.445,4.445,0,0,1-2.4.649,4.223,4.223,0,0,1-3.307-1.419,5.433,5.433,0,0,1-1.266-3.757Zm1.726.2a4.294,4.294,0,0,0,.775,2.681,2.479,2.479,0,0,0,2.073,1.011A2.464,2.464,0,0,0,21.041-2.24a4.7,4.7,0,0,0,.77-2.871,4.287,4.287,0,0,0-.784-2.677,2.492,2.492,0,0,0-2.083-1.025A2.465,2.465,0,0,0,16.894-7.8,4.661,4.661,0,0,0,16.115-4.908ZM28.663-2.329l2.486-7.709H32.9L29.3,0H27.995L24.358-10.038h1.753ZM38.409.186a4.386,4.386,0,0,1-3.321-1.341,4.976,4.976,0,0,1-1.28-3.586v-.315a6.024,6.024,0,0,1,.571-2.667,4.451,4.451,0,0,1,1.6-1.837,4.012,4.012,0,0,1,2.222-.663,3.759,3.759,0,0,1,3.043,1.29,5.583,5.583,0,0,1,1.085,3.692v.714h-6.8a3.568,3.568,0,0,0,.867,2.4,2.727,2.727,0,0,0,2.111.914,2.989,2.989,0,0,0,1.54-.371,3.869,3.869,0,0,0,1.1-.983l1.048.816A4.215,4.215,0,0,1,38.409.186Zm-.213-9a2.289,2.289,0,0,0-1.744.756,3.675,3.675,0,0,0-.872,2.12h5.028v-.13A3.269,3.269,0,0,0,39.9-8.094,2.155,2.155,0,0,0,38.2-8.813Zm5.7,3.711a5.88,5.88,0,0,1,1.095-3.716,3.462,3.462,0,0,1,2.867-1.406,3.481,3.481,0,0,1,2.792,1.206V-14.25h1.716V0H50.785L50.7-1.076A3.5,3.5,0,0,1,47.834.186a3.429,3.429,0,0,1-2.844-1.429,5.947,5.947,0,0,1-1.1-3.729Zm1.716.195a4.452,4.452,0,0,0,.705,2.672,2.279,2.279,0,0,0,1.948.965,2.5,2.5,0,0,0,2.384-1.466V-7.348A2.523,2.523,0,0,0,48.28-8.767a2.29,2.29,0,0,0-1.967.974A4.9,4.9,0,0,0,45.608-4.908ZM61.222,0a3.605,3.605,0,0,1-.241-1.058A3.829,3.829,0,0,1,58.123.186a3.543,3.543,0,0,1-2.435-.84,2.716,2.716,0,0,1-.951-2.129,2.838,2.838,0,0,1,1.192-2.435,5.621,5.621,0,0,1,3.354-.867h1.67v-.789a1.928,1.928,0,0,0-.538-1.433,2.163,2.163,0,0,0-1.586-.533,2.5,2.5,0,0,0-1.54.464,1.367,1.367,0,0,0-.622,1.123H54.941a2.369,2.369,0,0,1,.533-1.452,3.641,3.641,0,0,1,1.447-1.109,4.869,4.869,0,0,1,2.009-.408,3.968,3.968,0,0,1,2.718.867,3.129,3.129,0,0,1,1.021,2.389v4.62a5.649,5.649,0,0,0,.353,2.2V0ZM58.373-1.308A3.016,3.016,0,0,0,59.9-1.726a2.525,2.525,0,0,0,1.048-1.085v-2.06H59.607q-3.154,0-3.154,1.846a1.562,1.562,0,0,0,.538,1.262A2.068,2.068,0,0,0,58.373-1.308ZM64.942-5.1a5.88,5.88,0,0,1,1.095-3.716A3.462,3.462,0,0,1,68.9-10.224,3.481,3.481,0,0,1,71.7-9.018V-14.25h1.716V0H71.835l-.083-1.076A3.5,3.5,0,0,1,68.885.186a3.429,3.429,0,0,1-2.844-1.429,5.947,5.947,0,0,1-1.1-3.729Zm1.716.195a4.452,4.452,0,0,0,.705,2.672,2.279,2.279,0,0,0,1.948.965A2.5,2.5,0,0,0,71.7-2.737V-7.348A2.523,2.523,0,0,0,69.33-8.767a2.29,2.29,0,0,0-1.967.974A4.9,4.9,0,0,0,66.658-4.908Z" transform="translate(827.135 1459.569)" fill="#fff"/>
    <path id="Trazado_120549" data-name="Trazado 120549" d="M1.568,0V-13.508H5.381a6.138,6.138,0,0,1,3.117.779,5.271,5.271,0,0,1,2.092,2.217,7.217,7.217,0,0,1,.747,3.3v.863A7.242,7.242,0,0,1,10.6-3,5.188,5.188,0,0,1,8.493-.789,6.529,6.529,0,0,1,5.307,0ZM3.349-12.051V-1.457H5.223A4.077,4.077,0,0,0,8.428-2.738,5.294,5.294,0,0,0,9.574-6.387v-.789a5.378,5.378,0,0,0-1.081-3.579,3.846,3.846,0,0,0-3.066-1.3ZM15.623,0H13.907V-10.038h1.716ZM13.768-12.7a1.024,1.024,0,0,1,.255-.705.958.958,0,0,1,.756-.288.973.973,0,0,1,.761.288,1.014,1.014,0,0,1,.26.705.98.98,0,0,1-.26.7.99.99,0,0,1-.761.278A.975.975,0,0,1,14.023-12,.991.991,0,0,1,13.768-12.7ZM24.214-2.663a1.263,1.263,0,0,0-.524-1.081,5.045,5.045,0,0,0-1.828-.663,8.641,8.641,0,0,1-2.069-.668A2.943,2.943,0,0,1,18.661-6a2.219,2.219,0,0,1-.366-1.28A2.6,2.6,0,0,1,19.339-9.37a4.076,4.076,0,0,1,2.667-.854,4.194,4.194,0,0,1,2.769.881,2.8,2.8,0,0,1,1.062,2.254H24.112a1.549,1.549,0,0,0-.6-1.215,2.242,2.242,0,0,0-1.508-.51,2.346,2.346,0,0,0-1.466.408,1.285,1.285,0,0,0-.529,1.067A1.041,1.041,0,0,0,20.5-6.4a6.05,6.05,0,0,0,1.777.6,9.257,9.257,0,0,1,2.083.687,3.038,3.038,0,0,1,1.183.96,2.361,2.361,0,0,1,.385,1.368A2.569,2.569,0,0,1,24.854-.626a4.514,4.514,0,0,1-2.792.812,5.055,5.055,0,0,1-2.134-.427,3.47,3.47,0,0,1-1.452-1.192,2.873,2.873,0,0,1-.524-1.656h1.716a1.777,1.777,0,0,0,.691,1.368,2.681,2.681,0,0,0,1.7.506,2.768,2.768,0,0,0,1.563-.394A1.212,1.212,0,0,0,24.214-2.663ZM32.332.186A4.386,4.386,0,0,1,29.01-1.155a4.976,4.976,0,0,1-1.28-3.586v-.315A6.024,6.024,0,0,1,28.3-7.723,4.451,4.451,0,0,1,29.9-9.56a4.012,4.012,0,0,1,2.222-.663,3.759,3.759,0,0,1,3.043,1.29,5.583,5.583,0,0,1,1.085,3.692v.714h-6.8a3.568,3.568,0,0,0,.867,2.4,2.727,2.727,0,0,0,2.111.914,2.989,2.989,0,0,0,1.54-.371,3.869,3.869,0,0,0,1.1-.983l1.048.816A4.215,4.215,0,0,1,32.332.186Zm-.213-9a2.289,2.289,0,0,0-1.744.756,3.675,3.675,0,0,0-.872,2.12H34.53v-.13a3.269,3.269,0,0,0-.705-2.027A2.155,2.155,0,0,0,32.118-8.813Zm7.737-1.225.056,1.262a3.658,3.658,0,0,1,3.006-1.447q3.182,0,3.21,3.59V0H44.411V-6.643a2.311,2.311,0,0,0-.5-1.6,1.989,1.989,0,0,0-1.517-.52,2.477,2.477,0,0,0-1.466.445,3.024,3.024,0,0,0-.983,1.169V0H38.232V-10.038Zm5.678-3.915a2.307,2.307,0,0,1-.571,1.624,1.853,1.853,0,0,1-1.424.622,2.089,2.089,0,0,1-.659-.093,3.554,3.554,0,0,1-.728-.38,3.154,3.154,0,0,0-.649-.348,1.589,1.589,0,0,0-.459-.06.851.851,0,0,0-.649.292,1.06,1.06,0,0,0-.269.747l-1.15-.065a2.421,2.421,0,0,1,.561-1.642,1.8,1.8,0,0,1,1.424-.649,1.73,1.73,0,0,1,.584.093,4.26,4.26,0,0,1,.705.362,4.149,4.149,0,0,0,.682.353,1.566,1.566,0,0,0,.524.083.83.83,0,0,0,.663-.315,1.107,1.107,0,0,0,.264-.733Zm2.728,8.841a5.929,5.929,0,0,1,.58-2.653,4.325,4.325,0,0,1,1.614-1.818,4.394,4.394,0,0,1,2.361-.64A4.233,4.233,0,0,1,56.133-8.8,5.461,5.461,0,0,1,57.4-5.028v.121a5.981,5.981,0,0,1-.561,2.63,4.262,4.262,0,0,1-1.6,1.814,4.445,4.445,0,0,1-2.4.649,4.223,4.223,0,0,1-3.307-1.419,5.433,5.433,0,0,1-1.266-3.757Zm1.726.2a4.294,4.294,0,0,0,.775,2.681,2.479,2.479,0,0,0,2.073,1.011A2.464,2.464,0,0,0,54.913-2.24a4.7,4.7,0,0,0,.77-2.871A4.287,4.287,0,0,0,54.9-7.788a2.492,2.492,0,0,0-2.083-1.025A2.465,2.465,0,0,0,50.766-7.8,4.661,4.661,0,0,0,49.986-4.908Z" transform="translate(459.622 1459.569)" fill="#fff"/>
    <path id="Trazado_120551" data-name="Trazado 120551" d="M11.5-4.286A4.97,4.97,0,0,1,9.922-.979,5.184,5.184,0,0,1,6.383.186,4.76,4.76,0,0,1,2.547-1.531,6.905,6.905,0,0,1,1.1-6.123v-1.3a7.7,7.7,0,0,1,.673-3.312,5.024,5.024,0,0,1,1.906-2.194,5.308,5.308,0,0,1,2.857-.765,4.881,4.881,0,0,1,3.451,1.2A5.029,5.029,0,0,1,11.5-9.166H9.713a3.881,3.881,0,0,0-1.007-2.345,3.046,3.046,0,0,0-2.166-.726,3.187,3.187,0,0,0-2.677,1.263,5.8,5.8,0,0,0-.969,3.593v1.309a5.959,5.959,0,0,0,.918,3.5,2.968,2.968,0,0,0,2.57,1.3A3.428,3.428,0,0,0,8.66-1.944,3.733,3.733,0,0,0,9.713-4.286ZM19.863,0a3.605,3.605,0,0,1-.241-1.058A3.829,3.829,0,0,1,16.764.186a3.543,3.543,0,0,1-2.435-.84,2.716,2.716,0,0,1-.951-2.129A2.838,2.838,0,0,1,14.57-5.219a5.621,5.621,0,0,1,3.354-.867h1.67v-.789a1.928,1.928,0,0,0-.538-1.433,2.163,2.163,0,0,0-1.586-.533,2.5,2.5,0,0,0-1.54.464,1.367,1.367,0,0,0-.622,1.123H13.582a2.369,2.369,0,0,1,.533-1.452,3.641,3.641,0,0,1,1.447-1.109,4.869,4.869,0,0,1,2.009-.408,3.968,3.968,0,0,1,2.718.867A3.129,3.129,0,0,1,21.31-6.967v4.62a5.649,5.649,0,0,0,.353,2.2V0ZM17.015-1.308a3.016,3.016,0,0,0,1.531-.417,2.525,2.525,0,0,0,1.048-1.085v-2.06H18.249q-3.154,0-3.154,1.846a1.562,1.562,0,0,0,.538,1.262A2.068,2.068,0,0,0,17.015-1.308ZM25.865,0H24.149V-14.25h1.716Zm4.611,0H28.76V-10.038h1.716ZM28.621-12.7a1.024,1.024,0,0,1,.255-.705.958.958,0,0,1,.756-.288.973.973,0,0,1,.761.288,1.014,1.014,0,0,1,.26.705.98.98,0,0,1-.26.7.99.99,0,0,1-.761.278A.975.975,0,0,1,28.876-12,.991.991,0,0,1,28.621-12.7ZM32.8-5.1A5.88,5.88,0,0,1,33.9-8.818a3.462,3.462,0,0,1,2.867-1.406,3.481,3.481,0,0,1,2.792,1.206V-14.25h1.716V0H39.7l-.083-1.076A3.5,3.5,0,0,1,36.748.186,3.429,3.429,0,0,1,33.9-1.243a5.947,5.947,0,0,1-1.1-3.729Zm1.716.195a4.452,4.452,0,0,0,.705,2.672,2.279,2.279,0,0,0,1.948.965,2.5,2.5,0,0,0,2.384-1.466V-7.348a2.523,2.523,0,0,0-2.366-1.419,2.29,2.29,0,0,0-1.967.974A4.9,4.9,0,0,0,34.521-4.908ZM50.135,0a3.605,3.605,0,0,1-.241-1.058A3.829,3.829,0,0,1,47.036.186,3.543,3.543,0,0,1,44.6-.654a2.716,2.716,0,0,1-.951-2.129,2.838,2.838,0,0,1,1.192-2.435A5.621,5.621,0,0,1,48.2-6.086h1.67v-.789a1.928,1.928,0,0,0-.538-1.433,2.163,2.163,0,0,0-1.586-.533,2.5,2.5,0,0,0-1.54.464,1.367,1.367,0,0,0-.622,1.123H43.854a2.369,2.369,0,0,1,.533-1.452,3.641,3.641,0,0,1,1.447-1.109,4.869,4.869,0,0,1,2.009-.408,3.968,3.968,0,0,1,2.718.867,3.129,3.129,0,0,1,1.021,2.389v4.62a5.649,5.649,0,0,0,.353,2.2V0ZM47.287-1.308a3.016,3.016,0,0,0,1.531-.417,2.525,2.525,0,0,0,1.048-1.085v-2.06H48.521q-3.154,0-3.154,1.846A1.562,1.562,0,0,0,45.9-1.763,2.068,2.068,0,0,0,47.287-1.308ZM53.855-5.1A5.88,5.88,0,0,1,54.95-8.818a3.462,3.462,0,0,1,2.867-1.406,3.481,3.481,0,0,1,2.792,1.206V-14.25h1.716V0H60.748l-.083-1.076A3.5,3.5,0,0,1,57.8.186a3.429,3.429,0,0,1-2.844-1.429,5.947,5.947,0,0,1-1.1-3.729Zm1.716.195a4.452,4.452,0,0,0,.705,2.672,2.279,2.279,0,0,0,1.948.965,2.5,2.5,0,0,0,2.384-1.466V-7.348a2.523,2.523,0,0,0-2.366-1.419,2.29,2.29,0,0,0-1.967.974A4.9,4.9,0,0,0,55.571-4.908Z" transform="translate(882.771 1592.691)" fill="#fff"/>
    <path id="Trazado_120552" data-name="Trazado 120552" d="M6.522-5.464H3.349V0H1.559V-13.508H6.03a5.293,5.293,0,0,1,3.511,1.039,3.738,3.738,0,0,1,1.229,3.024,3.636,3.636,0,0,1-.682,2.2,4.07,4.07,0,0,1-1.9,1.4L11.365-.111V0H9.454ZM3.349-6.921H6.086A3.087,3.087,0,0,0,8.2-7.609a2.326,2.326,0,0,0,.784-1.84,2.449,2.449,0,0,0-.747-1.924,3.162,3.162,0,0,0-2.157-.678H3.349ZM17.163.186a4.386,4.386,0,0,1-3.321-1.341,4.976,4.976,0,0,1-1.28-3.586v-.315a6.024,6.024,0,0,1,.571-2.667,4.451,4.451,0,0,1,1.6-1.837,4.012,4.012,0,0,1,2.222-.663,3.759,3.759,0,0,1,3.043,1.29,5.583,5.583,0,0,1,1.085,3.692v.714h-6.8a3.568,3.568,0,0,0,.867,2.4,2.727,2.727,0,0,0,2.111.914,2.989,2.989,0,0,0,1.54-.371,3.87,3.87,0,0,0,1.1-.983l1.048.816A4.215,4.215,0,0,1,17.163.186Zm-.213-9a2.289,2.289,0,0,0-1.744.756,3.675,3.675,0,0,0-.872,2.12h5.028v-.13a3.269,3.269,0,0,0-.705-2.027A2.155,2.155,0,0,0,16.95-8.813Zm5.7,3.711a5.88,5.88,0,0,1,1.095-3.716,3.462,3.462,0,0,1,2.867-1.406A3.481,3.481,0,0,1,29.4-9.018V-14.25h1.716V0H29.539l-.083-1.076A3.5,3.5,0,0,1,26.589.186a3.429,3.429,0,0,1-2.844-1.429,5.947,5.947,0,0,1-1.1-3.729Zm1.716.195a4.452,4.452,0,0,0,.705,2.672,2.279,2.279,0,0,0,1.948.965A2.5,2.5,0,0,0,29.4-2.737V-7.348a2.523,2.523,0,0,0-2.366-1.419,2.29,2.29,0,0,0-1.967.974A4.9,4.9,0,0,0,24.362-4.908ZM39.976-.993A3.646,3.646,0,0,1,37.035.186a3.12,3.12,0,0,1-2.445-.932,4.036,4.036,0,0,1-.849-2.76v-6.531h1.716v6.485q0,2.282,1.855,2.282A2.569,2.569,0,0,0,39.93-2.737v-7.3h1.716V0H40.013Zm8.3-.223a2.472,2.472,0,0,0,1.6-.557,1.958,1.958,0,0,0,.761-1.392h1.624a3.112,3.112,0,0,1-.594,1.642A3.911,3.911,0,0,1,50.214-.278a4.216,4.216,0,0,1-1.934.464,4.135,4.135,0,0,1-3.261-1.368,5.45,5.45,0,0,1-1.211-3.743v-.288a6.043,6.043,0,0,1,.538-2.607A4.1,4.1,0,0,1,45.89-9.593a4.388,4.388,0,0,1,2.38-.631,4.026,4.026,0,0,1,2.806,1.011,3.614,3.614,0,0,1,1.192,2.625H50.645a2.365,2.365,0,0,0-.738-1.6,2.294,2.294,0,0,0-1.637-.626,2.4,2.4,0,0,0-2.027.942,4.422,4.422,0,0,0-.719,2.723v.325a4.334,4.334,0,0,0,.714,2.672A2.414,2.414,0,0,0,48.279-1.215Zm9.945,0a2.472,2.472,0,0,0,1.6-.557,1.958,1.958,0,0,0,.761-1.392h1.624a3.112,3.112,0,0,1-.594,1.642A3.911,3.911,0,0,1,60.159-.278a4.216,4.216,0,0,1-1.934.464,4.135,4.135,0,0,1-3.261-1.368,5.45,5.45,0,0,1-1.211-3.743v-.288a6.043,6.043,0,0,1,.538-2.607,4.1,4.1,0,0,1,1.545-1.772,4.388,4.388,0,0,1,2.38-.631,4.026,4.026,0,0,1,2.806,1.011,3.614,3.614,0,0,1,1.192,2.625H60.59a2.365,2.365,0,0,0-.738-1.6,2.294,2.294,0,0,0-1.637-.626,2.4,2.4,0,0,0-2.027.942,4.422,4.422,0,0,0-.719,2.723v.325a4.334,4.334,0,0,0,.714,2.672A2.414,2.414,0,0,0,58.225-1.215ZM66.008,0H64.292V-10.038h1.716ZM64.153-12.7a1.025,1.025,0,0,1,.255-.705.958.958,0,0,1,.756-.288.973.973,0,0,1,.761.288,1.014,1.014,0,0,1,.26.705.98.98,0,0,1-.26.7.99.99,0,0,1-.761.278A.975.975,0,0,1,64.408-12,.991.991,0,0,1,64.153-12.7ZM68.3-5.112a5.929,5.929,0,0,1,.58-2.653,4.326,4.326,0,0,1,1.614-1.818,4.394,4.394,0,0,1,2.361-.64A4.233,4.233,0,0,1,76.172-8.8a5.461,5.461,0,0,1,1.266,3.776v.121a5.981,5.981,0,0,1-.561,2.63,4.262,4.262,0,0,1-1.6,1.814,4.445,4.445,0,0,1-2.4.649,4.223,4.223,0,0,1-3.307-1.419A5.433,5.433,0,0,1,68.3-4.991Zm1.726.2A4.294,4.294,0,0,0,70.8-2.227a2.479,2.479,0,0,0,2.073,1.011A2.464,2.464,0,0,0,74.952-2.24a4.7,4.7,0,0,0,.77-2.871,4.287,4.287,0,0,0-.784-2.677,2.492,2.492,0,0,0-2.083-1.025A2.465,2.465,0,0,0,70.8-7.8,4.661,4.661,0,0,0,70.025-4.908Zm3.609-9.342h2.078l-2.486,2.728-1.382,0Zm7.58,4.212.056,1.262a3.658,3.658,0,0,1,3.006-1.447q3.182,0,3.21,3.59V0H85.769V-6.643a2.311,2.311,0,0,0-.5-1.6,1.989,1.989,0,0,0-1.517-.52,2.477,2.477,0,0,0-1.466.445,3.024,3.024,0,0,0-.983,1.169V0H79.59V-10.038Z" transform="translate(393.068 1592.691)" fill="#fff"/>
    <path id="Trazado_120553" data-name="Trazado 120553" d="M.881-5.1A5.88,5.88,0,0,1,1.976-8.818a3.462,3.462,0,0,1,2.867-1.406A3.481,3.481,0,0,1,7.635-9.018V-14.25H9.352V0H7.774L7.691-1.076A3.5,3.5,0,0,1,4.824.186,3.429,3.429,0,0,1,1.981-1.243a5.947,5.947,0,0,1-1.1-3.729ZM2.6-4.908A4.452,4.452,0,0,0,3.3-2.236a2.279,2.279,0,0,0,1.948.965A2.5,2.5,0,0,0,7.635-2.737V-7.348A2.523,2.523,0,0,0,5.27-8.767,2.29,2.29,0,0,0,3.3-7.793,4.9,4.9,0,0,0,2.6-4.908ZM16.18.186a4.386,4.386,0,0,1-3.321-1.341,4.976,4.976,0,0,1-1.28-3.586v-.315a6.024,6.024,0,0,1,.571-2.667,4.451,4.451,0,0,1,1.6-1.837,4.012,4.012,0,0,1,2.222-.663,3.759,3.759,0,0,1,3.043,1.29,5.583,5.583,0,0,1,1.085,3.692v.714h-6.8a3.568,3.568,0,0,0,.867,2.4,2.727,2.727,0,0,0,2.111.914,2.989,2.989,0,0,0,1.54-.371,3.87,3.87,0,0,0,1.1-.983l1.048.816A4.215,4.215,0,0,1,16.18.186Zm-.213-9a2.289,2.289,0,0,0-1.744.756,3.675,3.675,0,0,0-.872,2.12h5.028v-.13a3.269,3.269,0,0,0-.705-2.027A2.155,2.155,0,0,0,15.966-8.813Zm14.844,7.6a2.472,2.472,0,0,0,1.6-.557,1.958,1.958,0,0,0,.761-1.392H34.8a3.112,3.112,0,0,1-.594,1.642A3.911,3.911,0,0,1,32.744-.278,4.216,4.216,0,0,1,30.81.186a4.135,4.135,0,0,1-3.261-1.368,5.45,5.45,0,0,1-1.211-3.743v-.288a6.043,6.043,0,0,1,.538-2.607,4.1,4.1,0,0,1,1.545-1.772,4.388,4.388,0,0,1,2.38-.631,4.026,4.026,0,0,1,2.806,1.011A3.614,3.614,0,0,1,34.8-6.587H33.176a2.365,2.365,0,0,0-.738-1.6A2.294,2.294,0,0,0,30.8-8.813a2.4,2.4,0,0,0-2.027.942,4.422,4.422,0,0,0-.719,2.723v.325a4.334,4.334,0,0,0,.714,2.672A2.414,2.414,0,0,0,30.81-1.215Zm5.464-3.9a5.929,5.929,0,0,1,.58-2.653,4.325,4.325,0,0,1,1.614-1.818,4.394,4.394,0,0,1,2.361-.64A4.233,4.233,0,0,1,44.146-8.8a5.461,5.461,0,0,1,1.266,3.776v.121a5.981,5.981,0,0,1-.561,2.63,4.262,4.262,0,0,1-1.6,1.814,4.445,4.445,0,0,1-2.4.649,4.223,4.223,0,0,1-3.307-1.419,5.433,5.433,0,0,1-1.266-3.757Zm1.726.2a4.294,4.294,0,0,0,.775,2.681,2.479,2.479,0,0,0,2.073,1.011A2.464,2.464,0,0,0,42.926-2.24a4.7,4.7,0,0,0,.77-2.871,4.287,4.287,0,0,0-.784-2.677A2.492,2.492,0,0,0,40.83-8.813,2.465,2.465,0,0,0,38.779-7.8,4.661,4.661,0,0,0,38-4.908ZM53.41-2.663a1.264,1.264,0,0,0-.524-1.081,5.045,5.045,0,0,0-1.828-.663,8.641,8.641,0,0,1-2.069-.668A2.943,2.943,0,0,1,47.857-6a2.219,2.219,0,0,1-.366-1.28A2.6,2.6,0,0,1,48.534-9.37a4.076,4.076,0,0,1,2.667-.854,4.194,4.194,0,0,1,2.769.881,2.8,2.8,0,0,1,1.062,2.254H53.308a1.549,1.549,0,0,0-.6-1.215,2.242,2.242,0,0,0-1.508-.51,2.346,2.346,0,0,0-1.466.408,1.285,1.285,0,0,0-.529,1.067A1.041,1.041,0,0,0,49.7-6.4a6.05,6.05,0,0,0,1.777.6,9.257,9.257,0,0,1,2.083.687,3.038,3.038,0,0,1,1.183.96,2.361,2.361,0,0,1,.385,1.368A2.569,2.569,0,0,1,54.05-.626a4.514,4.514,0,0,1-2.792.812,5.055,5.055,0,0,1-2.134-.427,3.47,3.47,0,0,1-1.452-1.192,2.873,2.873,0,0,1-.524-1.656h1.716a1.777,1.777,0,0,0,.691,1.368,2.681,2.681,0,0,0,1.7.506,2.768,2.768,0,0,0,1.563-.394A1.212,1.212,0,0,0,53.41-2.663Zm6.281-9.806v2.431h1.874v1.327H59.69v6.233a1.393,1.393,0,0,0,.25.906,1.054,1.054,0,0,0,.854.3,4.155,4.155,0,0,0,.816-.111V0a5,5,0,0,1-1.317.184,2.137,2.137,0,0,1-1.735-.7,2.989,2.989,0,0,1-.584-1.976V-8.711H56.146v-1.327h1.828v-2.431ZM67.734.186a4.386,4.386,0,0,1-3.321-1.341,4.976,4.976,0,0,1-1.28-3.586v-.315A6.024,6.024,0,0,1,63.7-7.723,4.451,4.451,0,0,1,65.3-9.56a4.012,4.012,0,0,1,2.222-.663,3.759,3.759,0,0,1,3.043,1.29,5.583,5.583,0,0,1,1.085,3.692v.714h-6.8a3.568,3.568,0,0,0,.867,2.4,2.727,2.727,0,0,0,2.111.914,2.989,2.989,0,0,0,1.54-.371,3.87,3.87,0,0,0,1.1-.983l1.048.816A4.215,4.215,0,0,1,67.734.186Zm-.213-9a2.289,2.289,0,0,0-1.744.756,3.675,3.675,0,0,0-.872,2.12h5.028v-.13a3.269,3.269,0,0,0-.705-2.027A2.155,2.155,0,0,0,67.521-8.813ZM79.479-2.663a1.263,1.263,0,0,0-.524-1.081,5.045,5.045,0,0,0-1.828-.663,8.641,8.641,0,0,1-2.069-.668A2.943,2.943,0,0,1,73.927-6a2.219,2.219,0,0,1-.366-1.28A2.6,2.6,0,0,1,74.6-9.37a4.076,4.076,0,0,1,2.667-.854,4.194,4.194,0,0,1,2.769.881A2.8,2.8,0,0,1,81.1-7.088H79.377a1.549,1.549,0,0,0-.6-1.215,2.242,2.242,0,0,0-1.508-.51,2.347,2.347,0,0,0-1.466.408,1.285,1.285,0,0,0-.529,1.067,1.041,1.041,0,0,0,.492.937,6.05,6.05,0,0,0,1.777.6,9.257,9.257,0,0,1,2.083.687,3.038,3.038,0,0,1,1.183.96A2.361,2.361,0,0,1,81.2-2.783,2.569,2.569,0,0,1,80.119-.626a4.514,4.514,0,0,1-2.792.812,5.055,5.055,0,0,1-2.134-.427,3.47,3.47,0,0,1-1.452-1.192,2.873,2.873,0,0,1-.524-1.656h1.716a1.777,1.777,0,0,0,.691,1.368,2.681,2.681,0,0,0,1.7.506A2.768,2.768,0,0,0,78.89-1.61,1.212,1.212,0,0,0,79.479-2.663Z" transform="translate(397.652 1617.696)" fill="#fff"/>
    <path id="Trazado_120554" data-name="Trazado 120554" d="M11.5-4.286A4.97,4.97,0,0,1,9.922-.979,5.184,5.184,0,0,1,6.383.186,4.76,4.76,0,0,1,2.547-1.531,6.905,6.905,0,0,1,1.1-6.123v-1.3a7.7,7.7,0,0,1,.673-3.312,5.024,5.024,0,0,1,1.906-2.194,5.308,5.308,0,0,1,2.857-.765,4.881,4.881,0,0,1,3.451,1.2A5.029,5.029,0,0,1,11.5-9.166H9.713a3.881,3.881,0,0,0-1.007-2.345,3.046,3.046,0,0,0-2.166-.726,3.187,3.187,0,0,0-2.677,1.263,5.8,5.8,0,0,0-.969,3.593v1.309a5.959,5.959,0,0,0,.918,3.5,2.968,2.968,0,0,0,2.57,1.3A3.428,3.428,0,0,0,8.66-1.944,3.733,3.733,0,0,0,9.713-4.286Zm1.707-.826a5.929,5.929,0,0,1,.58-2.653,4.325,4.325,0,0,1,1.614-1.818,4.394,4.394,0,0,1,2.361-.64A4.233,4.233,0,0,1,21.083-8.8a5.461,5.461,0,0,1,1.266,3.776v.121a5.981,5.981,0,0,1-.561,2.63,4.262,4.262,0,0,1-1.6,1.814,4.445,4.445,0,0,1-2.4.649,4.223,4.223,0,0,1-3.307-1.419,5.433,5.433,0,0,1-1.266-3.757Zm1.726.2a4.294,4.294,0,0,0,.775,2.681,2.479,2.479,0,0,0,2.073,1.011A2.464,2.464,0,0,0,19.863-2.24a4.7,4.7,0,0,0,.77-2.871,4.287,4.287,0,0,0-.784-2.677,2.492,2.492,0,0,0-2.083-1.025A2.465,2.465,0,0,0,15.716-7.8,4.661,4.661,0,0,0,14.937-4.908Zm11.188-5.13.056,1.262a3.658,3.658,0,0,1,3.006-1.447q3.182,0,3.21,3.59V0H30.68V-6.643a2.311,2.311,0,0,0-.5-1.6,1.989,1.989,0,0,0-1.517-.52,2.477,2.477,0,0,0-1.466.445,3.024,3.024,0,0,0-.983,1.169V0H24.5V-10.038ZM38.3-2.329l2.486-7.709h1.753L38.937,0H37.629L33.992-10.038h1.753ZM48.043.186a4.386,4.386,0,0,1-3.321-1.341,4.976,4.976,0,0,1-1.28-3.586v-.315a6.024,6.024,0,0,1,.571-2.667,4.451,4.451,0,0,1,1.6-1.837,4.012,4.012,0,0,1,2.222-.663,3.759,3.759,0,0,1,3.043,1.29,5.583,5.583,0,0,1,1.085,3.692v.714h-6.8a3.568,3.568,0,0,0,.867,2.4,2.727,2.727,0,0,0,2.111.914,2.989,2.989,0,0,0,1.54-.371,3.869,3.869,0,0,0,1.1-.983l1.048.816A4.215,4.215,0,0,1,48.043.186Zm-.213-9a2.289,2.289,0,0,0-1.744.756,3.675,3.675,0,0,0-.872,2.12h5.028v-.13a3.269,3.269,0,0,0-.705-2.027A2.155,2.155,0,0,0,47.83-8.813Zm7.737-1.225.056,1.262a3.658,3.658,0,0,1,3.006-1.447q3.182,0,3.21,3.59V0H60.122V-6.643a2.311,2.311,0,0,0-.5-1.6,1.989,1.989,0,0,0-1.517-.52,2.477,2.477,0,0,0-1.466.445,3.024,3.024,0,0,0-.983,1.169V0H53.943V-10.038ZM66.291,0H64.575V-10.038h1.716ZM64.436-12.7a1.025,1.025,0,0,1,.255-.705.958.958,0,0,1,.756-.288.973.973,0,0,1,.761.288,1.014,1.014,0,0,1,.26.705.98.98,0,0,1-.26.7.99.99,0,0,1-.761.278A.975.975,0,0,1,64.691-12,.991.991,0,0,1,64.436-12.7ZM73.2.186a4.386,4.386,0,0,1-3.321-1.341A4.976,4.976,0,0,1,68.6-4.741v-.315a6.024,6.024,0,0,1,.571-2.667,4.451,4.451,0,0,1,1.6-1.837,4.012,4.012,0,0,1,2.222-.663,3.759,3.759,0,0,1,3.043,1.29,5.583,5.583,0,0,1,1.085,3.692v.714h-6.8a3.568,3.568,0,0,0,.867,2.4,2.727,2.727,0,0,0,2.111.914,2.989,2.989,0,0,0,1.54-.371,3.87,3.87,0,0,0,1.1-.983l1.048.816A4.215,4.215,0,0,1,73.2.186Zm-.213-9a2.289,2.289,0,0,0-1.744.756,3.675,3.675,0,0,0-.872,2.12H75.4v-.13A3.269,3.269,0,0,0,74.7-8.094,2.155,2.155,0,0,0,72.99-8.813Zm7.737-1.225.056,1.262a3.658,3.658,0,0,1,3.006-1.447q3.182,0,3.21,3.59V0H85.282V-6.643a2.311,2.311,0,0,0-.5-1.6,1.989,1.989,0,0,0-1.517-.52,2.477,2.477,0,0,0-1.466.445,3.024,3.024,0,0,0-.983,1.169V0H79.1V-10.038ZM93.613-1.215a2.472,2.472,0,0,0,1.6-.557,1.958,1.958,0,0,0,.761-1.392H97.6a3.112,3.112,0,0,1-.594,1.642A3.911,3.911,0,0,1,95.548-.278a4.216,4.216,0,0,1-1.934.464,4.135,4.135,0,0,1-3.261-1.368,5.45,5.45,0,0,1-1.211-3.743v-.288a6.043,6.043,0,0,1,.538-2.607,4.1,4.1,0,0,1,1.545-1.772,4.388,4.388,0,0,1,2.38-.631A4.026,4.026,0,0,1,96.41-9.212,3.614,3.614,0,0,1,97.6-6.587H95.979a2.365,2.365,0,0,0-.738-1.6A2.294,2.294,0,0,0,93.6-8.813a2.4,2.4,0,0,0-2.027.942,4.422,4.422,0,0,0-.719,2.723v.325a4.334,4.334,0,0,0,.714,2.672A2.414,2.414,0,0,0,93.613-1.215ZM101.4,0H99.681V-10.038H101.4ZM99.541-12.7a1.025,1.025,0,0,1,.255-.705.958.958,0,0,1,.756-.288.973.973,0,0,1,.761.288,1.014,1.014,0,0,1,.26.705.98.98,0,0,1-.26.7.99.99,0,0,1-.761.278A.975.975,0,0,1,99.8-12,.991.991,0,0,1,99.541-12.7ZM110.34,0a3.605,3.605,0,0,1-.241-1.058A3.829,3.829,0,0,1,107.242.186a3.543,3.543,0,0,1-2.435-.84,2.716,2.716,0,0,1-.951-2.129,2.838,2.838,0,0,1,1.192-2.435,5.621,5.621,0,0,1,3.354-.867h1.67v-.789a1.928,1.928,0,0,0-.538-1.433,2.163,2.163,0,0,0-1.586-.533,2.5,2.5,0,0,0-1.54.464,1.367,1.367,0,0,0-.622,1.123H104.06a2.369,2.369,0,0,1,.533-1.452,3.641,3.641,0,0,1,1.447-1.109,4.869,4.869,0,0,1,2.009-.408,3.968,3.968,0,0,1,2.718.867,3.129,3.129,0,0,1,1.021,2.389v4.62a5.649,5.649,0,0,0,.353,2.2V0Zm-2.848-1.308a3.016,3.016,0,0,0,1.531-.417,2.525,2.525,0,0,0,1.048-1.085v-2.06h-1.345q-3.154,0-3.154,1.846a1.562,1.562,0,0,0,.538,1.262A2.068,2.068,0,0,0,107.492-1.308Z" transform="translate(814.925 1722.757)" fill="#fff"/>
    <path id="Trazado_120555" data-name="Trazado 120555" d="M6.522-5.464H3.349V0H1.559V-13.508H6.03a5.293,5.293,0,0,1,3.511,1.039,3.738,3.738,0,0,1,1.229,3.024,3.636,3.636,0,0,1-.682,2.2,4.07,4.07,0,0,1-1.9,1.4L11.365-.111V0H9.454ZM3.349-6.921H6.086A3.087,3.087,0,0,0,8.2-7.609a2.326,2.326,0,0,0,.784-1.84,2.449,2.449,0,0,0-.747-1.924,3.162,3.162,0,0,0-2.157-.678H3.349ZM17.163.186a4.386,4.386,0,0,1-3.321-1.341,4.976,4.976,0,0,1-1.28-3.586v-.315a6.024,6.024,0,0,1,.571-2.667,4.451,4.451,0,0,1,1.6-1.837,4.012,4.012,0,0,1,2.222-.663,3.759,3.759,0,0,1,3.043,1.29,5.583,5.583,0,0,1,1.085,3.692v.714h-6.8a3.568,3.568,0,0,0,.867,2.4,2.727,2.727,0,0,0,2.111.914,2.989,2.989,0,0,0,1.54-.371,3.87,3.87,0,0,0,1.1-.983l1.048.816A4.215,4.215,0,0,1,17.163.186Zm-.213-9a2.289,2.289,0,0,0-1.744.756,3.675,3.675,0,0,0-.872,2.12h5.028v-.13a3.269,3.269,0,0,0-.705-2.027A2.155,2.155,0,0,0,16.95-8.813Zm5.7,3.711a5.88,5.88,0,0,1,1.095-3.716,3.462,3.462,0,0,1,2.867-1.406A3.481,3.481,0,0,1,29.4-9.018V-14.25h1.716V0H29.539l-.083-1.076A3.5,3.5,0,0,1,26.589.186a3.429,3.429,0,0,1-2.844-1.429,5.947,5.947,0,0,1-1.1-3.729Zm1.716.195a4.452,4.452,0,0,0,.705,2.672,2.279,2.279,0,0,0,1.948.965A2.5,2.5,0,0,0,29.4-2.737V-7.348a2.523,2.523,0,0,0-2.366-1.419,2.29,2.29,0,0,0-1.967.974A4.9,4.9,0,0,0,24.362-4.908ZM39.976-.993A3.646,3.646,0,0,1,37.035.186a3.12,3.12,0,0,1-2.445-.932,4.036,4.036,0,0,1-.849-2.76v-6.531h1.716v6.485q0,2.282,1.855,2.282A2.569,2.569,0,0,0,39.93-2.737v-7.3h1.716V0H40.013Zm8.3-.223a2.472,2.472,0,0,0,1.6-.557,1.958,1.958,0,0,0,.761-1.392h1.624a3.112,3.112,0,0,1-.594,1.642A3.911,3.911,0,0,1,50.214-.278a4.216,4.216,0,0,1-1.934.464,4.135,4.135,0,0,1-3.261-1.368,5.45,5.45,0,0,1-1.211-3.743v-.288a6.043,6.043,0,0,1,.538-2.607A4.1,4.1,0,0,1,45.89-9.593a4.388,4.388,0,0,1,2.38-.631,4.026,4.026,0,0,1,2.806,1.011,3.614,3.614,0,0,1,1.192,2.625H50.645a2.365,2.365,0,0,0-.738-1.6,2.294,2.294,0,0,0-1.637-.626,2.4,2.4,0,0,0-2.027.942,4.422,4.422,0,0,0-.719,2.723v.325a4.334,4.334,0,0,0,.714,2.672A2.414,2.414,0,0,0,48.279-1.215Zm9.945,0a2.472,2.472,0,0,0,1.6-.557,1.958,1.958,0,0,0,.761-1.392h1.624a3.112,3.112,0,0,1-.594,1.642A3.911,3.911,0,0,1,60.159-.278a4.216,4.216,0,0,1-1.934.464,4.135,4.135,0,0,1-3.261-1.368,5.45,5.45,0,0,1-1.211-3.743v-.288a6.043,6.043,0,0,1,.538-2.607,4.1,4.1,0,0,1,1.545-1.772,4.388,4.388,0,0,1,2.38-.631,4.026,4.026,0,0,1,2.806,1.011,3.614,3.614,0,0,1,1.192,2.625H60.59a2.365,2.365,0,0,0-.738-1.6,2.294,2.294,0,0,0-1.637-.626,2.4,2.4,0,0,0-2.027.942,4.422,4.422,0,0,0-.719,2.723v.325a4.334,4.334,0,0,0,.714,2.672A2.414,2.414,0,0,0,58.225-1.215ZM66.008,0H64.292V-10.038h1.716ZM64.153-12.7a1.025,1.025,0,0,1,.255-.705.958.958,0,0,1,.756-.288.973.973,0,0,1,.761.288,1.014,1.014,0,0,1,.26.705.98.98,0,0,1-.26.7.99.99,0,0,1-.761.278A.975.975,0,0,1,64.408-12,.991.991,0,0,1,64.153-12.7ZM68.3-5.112a5.929,5.929,0,0,1,.58-2.653,4.326,4.326,0,0,1,1.614-1.818,4.394,4.394,0,0,1,2.361-.64A4.233,4.233,0,0,1,76.172-8.8a5.461,5.461,0,0,1,1.266,3.776v.121a5.981,5.981,0,0,1-.561,2.63,4.262,4.262,0,0,1-1.6,1.814,4.445,4.445,0,0,1-2.4.649,4.223,4.223,0,0,1-3.307-1.419A5.433,5.433,0,0,1,68.3-4.991Zm1.726.2A4.294,4.294,0,0,0,70.8-2.227a2.479,2.479,0,0,0,2.073,1.011A2.464,2.464,0,0,0,74.952-2.24a4.7,4.7,0,0,0,.77-2.871,4.287,4.287,0,0,0-.784-2.677,2.492,2.492,0,0,0-2.083-1.025A2.465,2.465,0,0,0,70.8-7.8,4.661,4.661,0,0,0,70.025-4.908Zm3.609-9.342h2.078l-2.486,2.728-1.382,0Zm7.58,4.212.056,1.262a3.658,3.658,0,0,1,3.006-1.447q3.182,0,3.21,3.59V0H85.769V-6.643a2.311,2.311,0,0,0-.5-1.6,1.989,1.989,0,0,0-1.517-.52,2.477,2.477,0,0,0-1.466.445,3.024,3.024,0,0,0-.983,1.169V0H79.59V-10.038Z" transform="translate(436.381 1722.757)" fill="#fff"/>
    <path id="Trazado_120556" data-name="Trazado 120556" d="M.881-5.1A5.88,5.88,0,0,1,1.976-8.818a3.462,3.462,0,0,1,2.867-1.406A3.481,3.481,0,0,1,7.635-9.018V-14.25H9.352V0H7.774L7.691-1.076A3.5,3.5,0,0,1,4.824.186,3.429,3.429,0,0,1,1.981-1.243a5.947,5.947,0,0,1-1.1-3.729ZM2.6-4.908A4.452,4.452,0,0,0,3.3-2.236a2.279,2.279,0,0,0,1.948.965A2.5,2.5,0,0,0,7.635-2.737V-7.348A2.523,2.523,0,0,0,5.27-8.767,2.29,2.29,0,0,0,3.3-7.793,4.9,4.9,0,0,0,2.6-4.908ZM16.18.186a4.386,4.386,0,0,1-3.321-1.341,4.976,4.976,0,0,1-1.28-3.586v-.315a6.024,6.024,0,0,1,.571-2.667,4.451,4.451,0,0,1,1.6-1.837,4.012,4.012,0,0,1,2.222-.663,3.759,3.759,0,0,1,3.043,1.29,5.583,5.583,0,0,1,1.085,3.692v.714h-6.8a3.568,3.568,0,0,0,.867,2.4,2.727,2.727,0,0,0,2.111.914,2.989,2.989,0,0,0,1.54-.371,3.87,3.87,0,0,0,1.1-.983l1.048.816A4.215,4.215,0,0,1,16.18.186Zm-.213-9a2.289,2.289,0,0,0-1.744.756,3.675,3.675,0,0,0-.872,2.12h5.028v-.13a3.269,3.269,0,0,0-.705-2.027A2.155,2.155,0,0,0,15.966-8.813ZM31.636-8.5a5.143,5.143,0,0,0-.844-.065A2.262,2.262,0,0,0,28.5-7.125V0H26.784V-10.038h1.67l.028,1.16a2.672,2.672,0,0,1,2.394-1.345,1.753,1.753,0,0,1,.761.13ZM35.078,0H33.361V-10.038h1.716ZM33.222-12.7a1.024,1.024,0,0,1,.255-.705.958.958,0,0,1,.756-.288.973.973,0,0,1,.761.288,1.014,1.014,0,0,1,.26.705.98.98,0,0,1-.26.7.99.99,0,0,1-.761.278A.975.975,0,0,1,33.477-12,.991.991,0,0,1,33.222-12.7ZM41.989.186a4.386,4.386,0,0,1-3.321-1.341,4.976,4.976,0,0,1-1.28-3.586v-.315a6.024,6.024,0,0,1,.571-2.667,4.451,4.451,0,0,1,1.6-1.837,4.012,4.012,0,0,1,2.222-.663,3.759,3.759,0,0,1,3.043,1.29A5.583,5.583,0,0,1,45.9-5.242v.714H39.1a3.568,3.568,0,0,0,.867,2.4,2.727,2.727,0,0,0,2.111.914,2.989,2.989,0,0,0,1.54-.371,3.869,3.869,0,0,0,1.1-.983l1.048.816A4.215,4.215,0,0,1,41.989.186Zm-.213-9a2.289,2.289,0,0,0-1.744.756,3.675,3.675,0,0,0-.872,2.12h5.028v-.13a3.269,3.269,0,0,0-.705-2.027A2.155,2.155,0,0,0,41.776-8.813ZM53.734-2.663a1.264,1.264,0,0,0-.524-1.081,5.045,5.045,0,0,0-1.828-.663,8.641,8.641,0,0,1-2.069-.668A2.943,2.943,0,0,1,48.182-6a2.219,2.219,0,0,1-.366-1.28A2.6,2.6,0,0,1,48.859-9.37a4.076,4.076,0,0,1,2.667-.854,4.194,4.194,0,0,1,2.769.881,2.8,2.8,0,0,1,1.062,2.254H53.632a1.549,1.549,0,0,0-.6-1.215,2.242,2.242,0,0,0-1.508-.51,2.346,2.346,0,0,0-1.466.408,1.285,1.285,0,0,0-.529,1.067,1.041,1.041,0,0,0,.492.937,6.05,6.05,0,0,0,1.777.6,9.257,9.257,0,0,1,2.083.687,3.038,3.038,0,0,1,1.183.96,2.361,2.361,0,0,1,.385,1.368A2.569,2.569,0,0,1,54.375-.626a4.514,4.514,0,0,1-2.792.812,5.055,5.055,0,0,1-2.134-.427A3.47,3.47,0,0,1,48-1.433a2.873,2.873,0,0,1-.524-1.656h1.716a1.777,1.777,0,0,0,.691,1.368,2.681,2.681,0,0,0,1.7.506,2.768,2.768,0,0,0,1.563-.394A1.212,1.212,0,0,0,53.734-2.663ZM57.278-5.1a5.9,5.9,0,0,1,1.085-3.734,3.471,3.471,0,0,1,2.876-1.387,3.453,3.453,0,0,1,2.867,1.3l.083-1.113h1.568v9.8A4.084,4.084,0,0,1,64.6,2.83a4.262,4.262,0,0,1-3.1,1.123,5.163,5.163,0,0,1-2.125-.464,3.657,3.657,0,0,1-1.586-1.271l.891-1.03a3.356,3.356,0,0,0,2.7,1.364,2.63,2.63,0,0,0,1.953-.705,2.7,2.7,0,0,0,.7-1.985V-1A3.528,3.528,0,0,1,61.221.186a3.429,3.429,0,0,1-2.853-1.419A6.2,6.2,0,0,1,57.278-5.1ZM59-4.908a4.5,4.5,0,0,0,.7,2.667,2.261,2.261,0,0,0,1.948.969,2.514,2.514,0,0,0,2.384-1.475V-7.329a2.543,2.543,0,0,0-2.366-1.438,2.281,2.281,0,0,0-1.958.974A4.9,4.9,0,0,0,59-4.908Zm8.888-.2a5.929,5.929,0,0,1,.58-2.653,4.326,4.326,0,0,1,1.614-1.818,4.394,4.394,0,0,1,2.361-.64A4.233,4.233,0,0,1,75.763-8.8,5.461,5.461,0,0,1,77.03-5.028v.121a5.981,5.981,0,0,1-.561,2.63,4.262,4.262,0,0,1-1.6,1.814,4.445,4.445,0,0,1-2.4.649,4.223,4.223,0,0,1-3.307-1.419,5.433,5.433,0,0,1-1.266-3.757Zm1.726.2a4.294,4.294,0,0,0,.775,2.681,2.479,2.479,0,0,0,2.073,1.011A2.464,2.464,0,0,0,74.543-2.24a4.7,4.7,0,0,0,.77-2.871,4.287,4.287,0,0,0-.784-2.677,2.492,2.492,0,0,0-2.083-1.025A2.465,2.465,0,0,0,70.4-7.8,4.661,4.661,0,0,0,69.617-4.908Z" transform="translate(443.605 1747.762)" fill="#fff"/>
    <path id="Trazado_120557" data-name="Trazado 120557" d="M4.072-14.219l4.648,11.6,4.648-11.6H15.8V0H13.926V-5.537l.176-5.977L9.434,0H8L3.34-11.484l.186,5.947V0H1.65V-14.219ZM25.352,0A3.8,3.8,0,0,1,25.1-1.113,4.031,4.031,0,0,1,22.09.2a3.73,3.73,0,0,1-2.563-.884,2.859,2.859,0,0,1-1-2.241A2.987,2.987,0,0,1,19.78-5.493a5.916,5.916,0,0,1,3.53-.913h1.758v-.83A2.029,2.029,0,0,0,24.5-8.745a2.276,2.276,0,0,0-1.67-.562,2.634,2.634,0,0,0-1.621.488,1.439,1.439,0,0,0-.654,1.182H18.74A2.493,2.493,0,0,1,19.3-9.165a3.832,3.832,0,0,1,1.523-1.167,5.125,5.125,0,0,1,2.114-.43,4.177,4.177,0,0,1,2.861.913,3.294,3.294,0,0,1,1.074,2.515v4.863a5.946,5.946,0,0,0,.371,2.314V0Zm-3-1.377a3.175,3.175,0,0,0,1.611-.439,2.658,2.658,0,0,0,1.1-1.143V-5.127H23.652q-3.32,0-3.32,1.943A1.645,1.645,0,0,0,20.9-1.855,2.177,2.177,0,0,0,22.354-1.377ZM34.814-8.945a5.414,5.414,0,0,0-.889-.068A2.381,2.381,0,0,0,31.514-7.5V0H29.707V-10.566h1.758l.029,1.221a2.813,2.813,0,0,1,2.52-1.416,1.846,1.846,0,0,1,.8.137Zm5.713,7.666a2.6,2.6,0,0,0,1.689-.586,2.061,2.061,0,0,0,.8-1.465h1.709A3.276,3.276,0,0,1,44.1-1.6,4.116,4.116,0,0,1,42.563-.293,4.438,4.438,0,0,1,40.527.2a4.353,4.353,0,0,1-3.433-1.44,5.737,5.737,0,0,1-1.274-3.94v-.3a6.361,6.361,0,0,1,.566-2.744A4.314,4.314,0,0,1,38.013-10.1a4.619,4.619,0,0,1,2.5-.664A4.238,4.238,0,0,1,43.472-9.7a3.8,3.8,0,0,1,1.255,2.764H43.018a2.49,2.49,0,0,0-.776-1.685,2.415,2.415,0,0,0-1.724-.659,2.529,2.529,0,0,0-2.134.991,4.655,4.655,0,0,0-.757,2.866v.342a4.562,4.562,0,0,0,.752,2.813A2.541,2.541,0,0,0,40.527-1.279ZM53.281,0a3.8,3.8,0,0,1-.254-1.113A4.031,4.031,0,0,1,50.02.2a3.73,3.73,0,0,1-2.563-.884,2.859,2.859,0,0,1-1-2.241A2.987,2.987,0,0,1,47.71-5.493a5.916,5.916,0,0,1,3.53-.913H53v-.83a2.029,2.029,0,0,0-.566-1.509,2.276,2.276,0,0,0-1.67-.562,2.634,2.634,0,0,0-1.621.488,1.439,1.439,0,0,0-.654,1.182H46.67a2.493,2.493,0,0,1,.562-1.528,3.832,3.832,0,0,1,1.523-1.167,5.125,5.125,0,0,1,2.114-.43,4.177,4.177,0,0,1,2.861.913A3.294,3.294,0,0,1,54.8-7.334v4.863a5.946,5.946,0,0,0,.371,2.314V0Zm-3-1.377a3.175,3.175,0,0,0,1.611-.439A2.658,2.658,0,0,0,53-2.959V-5.127H51.582q-3.32,0-3.32,1.943a1.645,1.645,0,0,0,.566,1.328A2.177,2.177,0,0,0,50.283-1.377Z" transform="translate(728.575 1815.136)" fill="#fff"/>
    <path id="Trazado_120559" data-name="Trazado 120559" d="M1.642,1.16H.167L5.808-13.508H7.273ZM14.974-2.663a1.264,1.264,0,0,0-.524-1.081,5.045,5.045,0,0,0-1.828-.663,8.641,8.641,0,0,1-2.069-.668A2.943,2.943,0,0,1,9.421-6a2.219,2.219,0,0,1-.366-1.28A2.6,2.6,0,0,1,10.1-9.37a4.076,4.076,0,0,1,2.667-.854,4.194,4.194,0,0,1,2.769.881A2.8,2.8,0,0,1,16.6-7.088H14.872a1.549,1.549,0,0,0-.6-1.215,2.242,2.242,0,0,0-1.508-.51,2.346,2.346,0,0,0-1.466.408,1.285,1.285,0,0,0-.529,1.067,1.041,1.041,0,0,0,.492.937,6.05,6.05,0,0,0,1.777.6,9.257,9.257,0,0,1,2.083.687,3.038,3.038,0,0,1,1.183.96,2.361,2.361,0,0,1,.385,1.368A2.569,2.569,0,0,1,15.614-.626a4.514,4.514,0,0,1-2.792.812,5.055,5.055,0,0,1-2.134-.427A3.47,3.47,0,0,1,9.236-1.433a2.873,2.873,0,0,1-.524-1.656h1.716a1.777,1.777,0,0,0,.691,1.368,2.681,2.681,0,0,0,1.7.506,2.768,2.768,0,0,0,1.563-.394A1.212,1.212,0,0,0,14.974-2.663Zm6.281-9.806v2.431h1.874v1.327H21.254v6.233a1.393,1.393,0,0,0,.25.906,1.054,1.054,0,0,0,.854.3,4.155,4.155,0,0,0,.816-.111V0a5.005,5.005,0,0,1-1.317.184,2.137,2.137,0,0,1-1.735-.7,2.989,2.989,0,0,1-.584-1.976V-8.711H17.71v-1.327h1.828v-2.431ZM31.33,0a3.605,3.605,0,0,1-.241-1.058A3.829,3.829,0,0,1,28.231.186,3.543,3.543,0,0,1,25.8-.654a2.716,2.716,0,0,1-.951-2.129,2.838,2.838,0,0,1,1.192-2.435,5.621,5.621,0,0,1,3.354-.867h1.67v-.789a1.928,1.928,0,0,0-.538-1.433,2.163,2.163,0,0,0-1.586-.533,2.5,2.5,0,0,0-1.54.464,1.367,1.367,0,0,0-.622,1.123H25.049a2.369,2.369,0,0,1,.533-1.452A3.641,3.641,0,0,1,27.03-9.815a4.869,4.869,0,0,1,2.009-.408,3.968,3.968,0,0,1,2.718.867,3.129,3.129,0,0,1,1.021,2.389v4.62a5.649,5.649,0,0,0,.353,2.2V0ZM28.481-1.308a3.016,3.016,0,0,0,1.531-.417,2.525,2.525,0,0,0,1.048-1.085v-2.06H29.715q-3.154,0-3.154,1.846A1.562,1.562,0,0,0,27.1-1.763,2.068,2.068,0,0,0,28.481-1.308ZM37.8-12.469v2.431H39.67v1.327H37.8v6.233a1.393,1.393,0,0,0,.25.906,1.054,1.054,0,0,0,.854.3,4.155,4.155,0,0,0,.816-.111V0A5,5,0,0,1,38.4.186a2.137,2.137,0,0,1-1.735-.7,2.989,2.989,0,0,1-.584-1.976V-8.711H34.252v-1.327H36.08v-2.431ZM47.871-.993A3.646,3.646,0,0,1,44.93.186a3.12,3.12,0,0,1-2.445-.932,4.036,4.036,0,0,1-.849-2.76v-6.531h1.716v6.485q0,2.282,1.855,2.282a2.569,2.569,0,0,0,2.616-1.466v-7.3h1.716V0H47.908Zm10.122-1.67a1.264,1.264,0,0,0-.524-1.081,5.045,5.045,0,0,0-1.828-.663,8.641,8.641,0,0,1-2.069-.668A2.943,2.943,0,0,1,52.44-6a2.219,2.219,0,0,1-.366-1.28A2.6,2.6,0,0,1,53.117-9.37a4.076,4.076,0,0,1,2.667-.854,4.194,4.194,0,0,1,2.769.881,2.8,2.8,0,0,1,1.062,2.254H57.891a1.549,1.549,0,0,0-.6-1.215,2.242,2.242,0,0,0-1.508-.51,2.346,2.346,0,0,0-1.466.408,1.285,1.285,0,0,0-.529,1.067,1.041,1.041,0,0,0,.492.937,6.05,6.05,0,0,0,1.777.6,9.257,9.257,0,0,1,2.083.687,3.038,3.038,0,0,1,1.183.96,2.361,2.361,0,0,1,.385,1.368A2.569,2.569,0,0,1,58.633-.626,4.514,4.514,0,0,1,55.84.186a5.055,5.055,0,0,1-2.134-.427,3.47,3.47,0,0,1-1.452-1.192,2.873,2.873,0,0,1-.524-1.656h1.716a1.777,1.777,0,0,0,.691,1.368,2.681,2.681,0,0,0,1.7.506A2.768,2.768,0,0,0,57.4-1.61,1.212,1.212,0,0,0,57.993-2.663Z" transform="translate(722.699 1839.141)" fill="#fff"/>
    <path id="Trazado_120558" data-name="Trazado 120558" d="M1.568,0V-13.508H5.381a6.138,6.138,0,0,1,3.117.779,5.271,5.271,0,0,1,2.092,2.217,7.217,7.217,0,0,1,.747,3.3v.863A7.242,7.242,0,0,1,10.6-3,5.188,5.188,0,0,1,8.493-.789,6.529,6.529,0,0,1,5.307,0ZM3.349-12.051V-1.457H5.223A4.077,4.077,0,0,0,8.428-2.738,5.294,5.294,0,0,0,9.574-6.387v-.789a5.378,5.378,0,0,0-1.081-3.579,3.846,3.846,0,0,0-3.066-1.3ZM17.924.186A4.386,4.386,0,0,1,14.6-1.155a4.976,4.976,0,0,1-1.28-3.586v-.315a6.024,6.024,0,0,1,.571-2.667,4.451,4.451,0,0,1,1.6-1.837,4.012,4.012,0,0,1,2.222-.663,3.759,3.759,0,0,1,3.043,1.29,5.583,5.583,0,0,1,1.085,3.692v.714h-6.8a3.568,3.568,0,0,0,.867,2.4,2.727,2.727,0,0,0,2.111.914,2.989,2.989,0,0,0,1.54-.371,3.87,3.87,0,0,0,1.1-.983l1.048.816A4.215,4.215,0,0,1,17.924.186Zm-.213-9a2.289,2.289,0,0,0-1.744.756,3.675,3.675,0,0,0-.872,2.12h5.028v-.13a3.269,3.269,0,0,0-.705-2.027A2.155,2.155,0,0,0,17.71-8.813ZM29.669-2.663a1.263,1.263,0,0,0-.524-1.081,5.045,5.045,0,0,0-1.828-.663,8.641,8.641,0,0,1-2.069-.668A2.943,2.943,0,0,1,24.116-6a2.219,2.219,0,0,1-.366-1.28A2.6,2.6,0,0,1,24.794-9.37a4.076,4.076,0,0,1,2.667-.854,4.194,4.194,0,0,1,2.769.881,2.8,2.8,0,0,1,1.062,2.254H29.567a1.549,1.549,0,0,0-.6-1.215,2.242,2.242,0,0,0-1.508-.51A2.346,2.346,0,0,0,26-8.405a1.285,1.285,0,0,0-.529,1.067,1.041,1.041,0,0,0,.492.937,6.05,6.05,0,0,0,1.777.6,9.257,9.257,0,0,1,2.083.687A3.038,3.038,0,0,1,31-4.152a2.361,2.361,0,0,1,.385,1.368A2.569,2.569,0,0,1,30.309-.626a4.514,4.514,0,0,1-2.792.812,5.055,5.055,0,0,1-2.134-.427,3.47,3.47,0,0,1-1.452-1.192,2.873,2.873,0,0,1-.524-1.656h1.716a1.777,1.777,0,0,0,.691,1.368,2.681,2.681,0,0,0,1.7.506A2.768,2.768,0,0,0,29.08-1.61,1.212,1.212,0,0,0,29.669-2.663ZM37.787.186a4.386,4.386,0,0,1-3.321-1.341,4.976,4.976,0,0,1-1.28-3.586v-.315a6.024,6.024,0,0,1,.571-2.667,4.451,4.451,0,0,1,1.6-1.837,4.012,4.012,0,0,1,2.222-.663,3.759,3.759,0,0,1,3.043,1.29A5.583,5.583,0,0,1,41.7-5.242v.714H34.9a3.568,3.568,0,0,0,.867,2.4,2.727,2.727,0,0,0,2.111.914,2.989,2.989,0,0,0,1.54-.371,3.869,3.869,0,0,0,1.1-.983l1.048.816A4.215,4.215,0,0,1,37.787.186Zm-.213-9a2.289,2.289,0,0,0-1.744.756,3.675,3.675,0,0,0-.872,2.12h5.028v-.13a3.269,3.269,0,0,0-.705-2.027A2.155,2.155,0,0,0,37.573-8.813ZM45.3-10.038l.046,1.113a3.707,3.707,0,0,1,2.978-1.3,2.87,2.87,0,0,1,2.867,1.614,3.8,3.8,0,0,1,1.3-1.169,3.85,3.85,0,0,1,1.9-.445q3.3,0,3.358,3.5V0H56.035V-6.624a2.3,2.3,0,0,0-.492-1.61,2.165,2.165,0,0,0-1.651-.533,2.276,2.276,0,0,0-1.586.571,2.315,2.315,0,0,0-.733,1.535V0H49.847V-6.578A1.915,1.915,0,0,0,47.7-8.767a2.3,2.3,0,0,0-2.31,1.438V0H43.678V-10.038Zm23.518,5.13a6.011,6.011,0,0,1-1.048,3.692,3.36,3.36,0,0,1-2.839,1.4,3.681,3.681,0,0,1-2.876-1.16V3.859H60.34v-13.9h1.568l.083,1.113a3.536,3.536,0,0,1,2.913-1.3A3.423,3.423,0,0,1,67.766-8.86a6.076,6.076,0,0,1,1.053,3.794ZM67.1-5.1a4.435,4.435,0,0,0-.724-2.681,2.331,2.331,0,0,0-1.985-.983,2.523,2.523,0,0,0-2.338,1.382v4.8a2.528,2.528,0,0,0,2.356,1.373,2.32,2.32,0,0,0,1.962-.979A4.841,4.841,0,0,0,67.1-5.1ZM75.165.186a4.386,4.386,0,0,1-3.321-1.341,4.976,4.976,0,0,1-1.28-3.586v-.315a6.024,6.024,0,0,1,.571-2.667,4.451,4.451,0,0,1,1.6-1.837,4.012,4.012,0,0,1,2.222-.663,3.759,3.759,0,0,1,3.043,1.29A5.583,5.583,0,0,1,79.08-5.242v.714h-6.8a3.568,3.568,0,0,0,.867,2.4,2.727,2.727,0,0,0,2.111.914,2.989,2.989,0,0,0,1.54-.371,3.87,3.87,0,0,0,1.1-.983l1.048.816A4.215,4.215,0,0,1,75.165.186Zm-.213-9a2.289,2.289,0,0,0-1.744.756,3.675,3.675,0,0,0-.872,2.12h5.028v-.13a3.269,3.269,0,0,0-.705-2.027A2.155,2.155,0,0,0,74.952-8.813Zm7.737-1.225.056,1.262a3.658,3.658,0,0,1,3.006-1.447q3.182,0,3.21,3.59V0H87.244V-6.643a2.311,2.311,0,0,0-.5-1.6,1.989,1.989,0,0,0-1.517-.52,2.477,2.477,0,0,0-1.466.445,3.024,3.024,0,0,0-.983,1.169V0H81.065V-10.038Zm5.678-3.915A2.307,2.307,0,0,1,87.8-12.33a1.853,1.853,0,0,1-1.424.622,2.089,2.089,0,0,1-.659-.093,3.554,3.554,0,0,1-.728-.38,3.154,3.154,0,0,0-.649-.348,1.589,1.589,0,0,0-.459-.06.851.851,0,0,0-.649.292,1.06,1.06,0,0,0-.269.747l-1.15-.065a2.421,2.421,0,0,1,.561-1.642,1.8,1.8,0,0,1,1.424-.649,1.73,1.73,0,0,1,.584.093,4.259,4.259,0,0,1,.705.362,4.149,4.149,0,0,0,.682.353,1.566,1.566,0,0,0,.524.083.83.83,0,0,0,.663-.315,1.107,1.107,0,0,0,.264-.733Zm2.728,8.841a5.929,5.929,0,0,1,.58-2.653,4.326,4.326,0,0,1,1.614-1.818,4.394,4.394,0,0,1,2.361-.64A4.233,4.233,0,0,1,98.966-8.8a5.461,5.461,0,0,1,1.266,3.776v.121a5.981,5.981,0,0,1-.561,2.63,4.262,4.262,0,0,1-1.6,1.814,4.445,4.445,0,0,1-2.4.649,4.223,4.223,0,0,1-3.307-1.419,5.433,5.433,0,0,1-1.266-3.757Zm1.726.2a4.294,4.294,0,0,0,.775,2.681,2.479,2.479,0,0,0,2.073,1.011A2.464,2.464,0,0,0,97.746-2.24a4.7,4.7,0,0,0,.77-2.871,4.287,4.287,0,0,0-.784-2.677,2.492,2.492,0,0,0-2.083-1.025A2.465,2.465,0,0,0,93.6-7.8,4.661,4.661,0,0,0,92.82-4.908Z" transform="translate(546.916 1814.136)" fill="#fff"/>
  </g>
</svg>
