<svg xmlns="http://www.w3.org/2000/svg" xmlns:xlink="http://www.w3.org/1999/xlink" width="408.151" height="408.074" viewBox="0 0 408.151 408.074">
  <defs>
    <linearGradient id="linear-gradient" y1="0.5" x2="1" y2="0.5" gradientUnits="objectBoundingBox">
      <stop offset="0" stop-color="#073e98"/>
      <stop offset="0.25" stop-color="#0e56a2"/>
      <stop offset="0.76" stop-color="#2193bb"/>
      <stop offset="1" stop-color="#2ab2c8"/>
    </linearGradient>
    <linearGradient id="linear-gradient-2" x1="0" y1="0.5" x2="1" y2="0.5" xlink:href="#linear-gradient"/>
    <linearGradient id="linear-gradient-3" x1="0" y1="0.5" x2="1" y2="0.5" xlink:href="#linear-gradient"/>
    <clipPath id="clip-path">
      <circle id="Elipse_4238" data-name="Elipse 4238" cx="123.483" cy="123.483" r="123.483" transform="translate(0 0)" fill="none"/>
    </clipPath>
    <linearGradient id="linear-gradient-4" x1="1.944" y1="-0.588" x2="1.248" y2="-0.064" gradientUnits="objectBoundingBox">
      <stop offset="0" stop-color="#e5908c"/>
      <stop offset="1" stop-color="#df6f63"/>
    </linearGradient>
    <linearGradient id="linear-gradient-5" x1="0.773" y1="0.294" x2="2.554" y2="-1.061" gradientUnits="objectBoundingBox">
      <stop offset="0" stop-color="#c24940"/>
      <stop offset="1" stop-color="#cc605b"/>
    </linearGradient>
    <linearGradient id="linear-gradient-6" x1="0.651" y1="-12.567" x2="0.475" y2="2.965" xlink:href="#linear-gradient-5"/>
    <linearGradient id="linear-gradient-7" x1="1.291" y1="-0.672" x2="3.677" y2="-4.207" gradientUnits="objectBoundingBox">
      <stop offset="0" stop-color="#ecb9b8"/>
      <stop offset="1" stop-color="#e5908c"/>
    </linearGradient>
    <linearGradient id="linear-gradient-8" x1="0.988" y1="-0.223" x2="3.374" y2="-3.757" xlink:href="#linear-gradient-7"/>
    <linearGradient id="linear-gradient-9" x1="0.023" y1="1.139" x2="0.858" y2="-0.027" xlink:href="#linear-gradient-4"/>
    <linearGradient id="linear-gradient-10" x1="0.5" y1="-2.711" x2="0.5" y2="-1.247" xlink:href="#linear-gradient-5"/>
    <linearGradient id="linear-gradient-11" x1="0.509" y1="-3.152" x2="0.502" y2="-0.769" xlink:href="#linear-gradient-7"/>
    <linearGradient id="linear-gradient-12" x1="13.449" y1="-3.322" x2="9.6" y2="-2.186" xlink:href="#linear-gradient-4"/>
    <linearGradient id="linear-gradient-13" x1="11.788" y1="-2.833" x2="7.939" y2="-1.696" xlink:href="#linear-gradient-4"/>
    <linearGradient id="linear-gradient-14" x1="10.131" y1="-2.343" x2="6.282" y2="-1.207" xlink:href="#linear-gradient-4"/>
    <linearGradient id="linear-gradient-15" x1="8.475" y1="-1.854" x2="4.626" y2="-0.718" xlink:href="#linear-gradient-4"/>
    <linearGradient id="linear-gradient-16" x1="6.818" y1="-1.365" x2="2.967" y2="-0.228" xlink:href="#linear-gradient-4"/>
    <linearGradient id="linear-gradient-17" x1="5.158" y1="-0.876" x2="1.309" y2="0.261" xlink:href="#linear-gradient-4"/>
    <linearGradient id="linear-gradient-18" x1="0.573" y1="-0.643" x2="0.806" y2="-4.278" xlink:href="#linear-gradient-7"/>
    <linearGradient id="linear-gradient-19" x1="0.678" y1="-3.277" x2="0.475" y2="1.025" xlink:href="#linear-gradient-5"/>
    <linearGradient id="linear-gradient-20" x1="0.55" y1="-0.273" x2="0.783" y2="-3.908" xlink:href="#linear-gradient-7"/>
    <linearGradient id="linear-gradient-21" x1="0.661" y1="-2.915" x2="0.458" y2="1.387" xlink:href="#linear-gradient-5"/>
    <linearGradient id="linear-gradient-22" x1="0.526" y1="0.097" x2="0.759" y2="-3.537" xlink:href="#linear-gradient-7"/>
    <linearGradient id="linear-gradient-23" x1="0.644" y1="-2.554" x2="0.441" y2="1.749" xlink:href="#linear-gradient-5"/>
    <linearGradient id="linear-gradient-24" x1="1.222" y1="-1.61" x2="0.725" y2="-0.157" xlink:href="#linear-gradient-7"/>
    <linearGradient id="linear-gradient-25" x1="0.445" y1="2.317" x2="0.557" y2="-1.317" xlink:href="#linear-gradient-5"/>
    <linearGradient id="linear-gradient-26" x1="1.234" y1="-1.309" x2="0.971" y2="-0.615" gradientUnits="objectBoundingBox">
      <stop offset="0" stop-color="#0f005b"/>
      <stop offset="1" stop-color="#1e168c"/>
    </linearGradient>
    <linearGradient id="linear-gradient-27" x1="0.653" y1="0.156" x2="1.547" y2="-1.669" xlink:href="#linear-gradient-7"/>
    <linearGradient id="linear-gradient-28" x1="0" y1="0.5" x2="1" y2="0.5" xlink:href="#linear-gradient-5"/>
    <linearGradient id="linear-gradient-29" y1="0.5" x2="0.997" y2="0.5" gradientUnits="objectBoundingBox">
      <stop offset="0" stop-color="#dbe1fc"/>
      <stop offset="1" stop-color="#e9edfb"/>
    </linearGradient>
    <linearGradient id="linear-gradient-31" x1="0" y1="0.5" x2="0.997" y2="0.5" xlink:href="#linear-gradient-29"/>
  </defs>
  <g id="Grupo_55243" data-name="Grupo 55243" transform="translate(-742.849 -2687.994)">
    <path id="Trazado_119403" data-name="Trazado 119403" d="M306.828,105.876a163.663,163.663,0,0,1,39.731-17.83,186.221,186.221,0,0,0-2.406-46.656,204.116,204.116,0,0,1,99.661,145.549,192.187,192.187,0,0,1-34.91,31.1,168.52,168.52,0,0,0-38.8-19.815,129.659,129.659,0,0,0-63.3-92.4Z" transform="translate(704.825 2673.979)" fill="#57dbd8"/>
    <path id="Trazado_119404" data-name="Trazado 119404" d="M373.163,234.5a170.156,170.156,0,0,1,35.331,25.469A193.642,193.642,0,0,0,447.7,234.5a202.872,202.872,0,0,1-44.214,126.786,200.52,200.52,0,0,1-32.019,32.257,186.441,186.441,0,0,1-44.424-14.637,163.945,163.945,0,0,0-2.3-43.473,126.139,126.139,0,0,0,20.355-20.5A128.369,128.369,0,0,0,373.163,234.5Z" transform="translate(703.297 2657.531)" fill="url(#linear-gradient)"/>
    <path id="Trazado_119405" data-name="Trazado 119405" d="M293.043,357.12a161.507,161.507,0,0,1-.677,21.462q-.576,5.37-1.464,10.886c-.585,3.714-1.372,7.255-2.214,10.978,3.092,2.086,6.358,4.254,9.624,6.138s6.687,3.8,10.182,5.617a198.687,198.687,0,0,0,21.874,9.459,201.381,201.381,0,0,1-86.46,26.731,207.748,207.748,0,0,1-45.4-1.555,200.18,200.18,0,0,1-44.049-11.646c-1.29-3.879-2.525-7.6-3.54-11.509s-1.958-7.7-2.744-11.481A185.235,185.235,0,0,1,144.96,389.4a170.157,170.157,0,0,0,19.349-10.8q4.574-3.028,8.874-6.212c2.836-2.077,5.654-4.428,8.3-6.687a128.808,128.808,0,0,0,56.829,8.343A127,127,0,0,0,293.08,357.12Z" transform="translate(718.61 2647.087)" fill="#57dbd8"/>
    <path id="Trazado_119406" data-name="Trazado 119406" d="M394.251,317.757a6.084,6.084,0,1,0-6.559,0,7.776,7.776,0,0,0-7.072,7.749v6.4l.439.137a35.6,35.6,0,0,0,10.575,1.7,21.632,21.632,0,0,0,9.24-1.738l.4-.2h.046v-6.3a7.794,7.794,0,0,0-7.072-7.749Z" transform="translate(698.538 2651.395)" fill="#fff"/>
    <path id="Trazado_119407" data-name="Trazado 119407" d="M152.586,346.677a163.979,163.979,0,0,1-39.731,17.83,185.784,185.784,0,0,0,2.4,46.656A204.144,204.144,0,0,1,15.6,265.614a192.187,192.187,0,0,1,34.91-31.1,168.465,168.465,0,0,0,38.77,19.824,129.631,129.631,0,0,0,63.306,92.352Z" transform="translate(729.628 2657.529)" fill="url(#linear-gradient-2)"/>
    <path id="Trazado_119408" data-name="Trazado 119408" d="M87.558,219.693a169.966,169.966,0,0,1-35.34-25.469A193.844,193.844,0,0,0,13,219.693,202.872,202.872,0,0,1,57.232,92.907,200.467,200.467,0,0,1,89.251,60.65a186.169,186.169,0,0,1,44.424,14.637,164.322,164.322,0,0,0,2.305,43.473,126.567,126.567,0,0,0-20.391,20.529,128.3,128.3,0,0,0-28.03,80.4Z" transform="translate(729.85 2672.338)" fill="#57dbd8"/>
    <path id="Trazado_119409" data-name="Trazado 119409" d="M161.864,103.327a161.458,161.458,0,0,1,.677-21.462Q163.117,76.5,164,70.979c.576-3.723,1.363-7.255,2.2-10.978-3.092-2.086-6.349-4.254-9.624-6.138s-6.678-3.8-10.182-5.617a197.176,197.176,0,0,0-21.874-9.459A201.472,201.472,0,0,1,211,12.055a207.749,207.749,0,0,1,45.4,1.555,200.183,200.183,0,0,1,44.049,11.646c1.29,3.879,2.516,7.6,3.54,11.509s1.949,7.7,2.744,11.481a183.5,183.5,0,0,1,3.211,22.807,169.981,169.981,0,0,0-19.339,10.795q-4.574,3.028-8.883,6.212c-2.827,2.077-5.645,4.428-8.288,6.678a128.936,128.936,0,0,0-56.82-8.352,131.387,131.387,0,0,0-28.36,5.333,129.906,129.906,0,0,0-26.393,11.609Z" transform="translate(720.35 2676.527)" fill="url(#linear-gradient-3)"/>
    <g id="Grupo_54841" data-name="Grupo 54841" transform="translate(937.589 2715.322)">
      <path id="Trazado_119410" data-name="Trazado 119410" d="M252.212,64.293l-5.864-5.873A11.325,11.325,0,0,1,243,61.814l5.864,5.864a2.4,2.4,0,1,0,3.394-3.385Z" transform="translate(-227.329 -42.795)" fill="#fff"/>
      <path id="Trazado_119411" data-name="Trazado 119411" d="M245.063,50.946a9.6,9.6,0,1,0-9.587,9.587A9.6,9.6,0,0,0,245.063,50.946Zm-9.587,7.191a7.2,7.2,0,1,1,7.191-7.191,7.2,7.2,0,0,1-7.191,7.191Z" transform="translate(-225.87 -41.34)" fill="#fff"/>
      <path id="Trazado_119412" data-name="Trazado 119412" d="M230.25,51.319h1.6a4,4,0,0,1,4-4v-1.6A5.608,5.608,0,0,0,230.25,51.319Z" transform="translate(-226.243 -41.713)" fill="#fff"/>
    </g>
    <path id="Trazado_119413" data-name="Trazado 119413" d="M92.8,322.27l-7.5,5.443,2.863,8.865a1.153,1.153,0,0,1-1.1,1.509,1.2,1.2,0,0,1-.686-.22l-7.492-5.443-7.529,5.4a1.171,1.171,0,0,1-1.363,0,1.153,1.153,0,0,1-.421-1.29l2.863-8.819-7.483-5.443a1.153,1.153,0,0,1,.677-2.095h9.295l2.836-8.81a1.153,1.153,0,0,1,2.2,0l2.863,8.81h9.295a1.162,1.162,0,0,1,.686,2.095Z" transform="translate(725.466 2651.052)" fill="#fff"/>
    <path id="Trazado_120546" data-name="Trazado 120546" d="M3.054-10.664l3.486,8.7,3.486-8.7h1.824V0H10.444V-4.153l.132-4.482L7.075,0H6L2.5-8.613l.139,4.46V0H1.238V-10.664ZM17.41.146A3.463,3.463,0,0,1,14.788-.912a3.928,3.928,0,0,1-1.011-2.831v-.249a4.756,4.756,0,0,1,.45-2.106,3.514,3.514,0,0,1,1.26-1.45,3.167,3.167,0,0,1,1.754-.524,2.968,2.968,0,0,1,2.4,1.018A4.408,4.408,0,0,1,20.5-4.138v.564H15.132a2.817,2.817,0,0,0,.685,1.893,2.153,2.153,0,0,0,1.666.721A2.36,2.36,0,0,0,18.7-1.252a3.055,3.055,0,0,0,.872-.776l.828.645A3.328,3.328,0,0,1,17.41.146Zm-.168-7.1a1.807,1.807,0,0,0-1.377.6,2.9,2.9,0,0,0-.688,1.674h3.97v-.1a2.581,2.581,0,0,0-.557-1.6A1.7,1.7,0,0,0,17.241-6.958Zm6.226-.967V.916q0,2.285-2.073,2.285a2.528,2.528,0,0,1-.828-.131V1.992a2.62,2.62,0,0,0,.615.059.921.921,0,0,0,.692-.246,1.214,1.214,0,0,0,.238-.854V-7.925Zm-1.494-2.1a.812.812,0,0,1,.2-.553.741.741,0,0,1,.59-.231.768.768,0,0,1,.6.227.8.8,0,0,1,.205.557.774.774,0,0,1-.205.549.782.782,0,0,1-.6.22.758.758,0,0,1-.593-.22A.791.791,0,0,1,21.973-10.027Zm3.318,5.991a4.681,4.681,0,0,1,.458-2.095,3.415,3.415,0,0,1,1.274-1.436,3.469,3.469,0,0,1,1.864-.505,3.342,3.342,0,0,1,2.618,1.121,4.311,4.311,0,0,1,1,2.981v.1A4.722,4.722,0,0,1,32.062-1.8,3.365,3.365,0,0,1,30.795-.366,3.509,3.509,0,0,1,28.9.146,3.334,3.334,0,0,1,26.29-.974a4.29,4.29,0,0,1-1-2.966Zm1.362.161a3.39,3.39,0,0,0,.612,2.117,1.957,1.957,0,0,0,1.637.8,1.945,1.945,0,0,0,1.641-.809,3.707,3.707,0,0,0,.608-2.267,3.384,3.384,0,0,0-.619-2.113,1.968,1.968,0,0,0-1.644-.809,1.946,1.946,0,0,0-1.619.8A3.68,3.68,0,0,0,26.653-3.875ZM38.035-6.709a4.061,4.061,0,0,0-.667-.051,1.786,1.786,0,0,0-1.809,1.135V0H34.2V-7.925h1.318l.022.916a2.11,2.11,0,0,1,1.89-1.062,1.384,1.384,0,0,1,.6.1ZM43.879,0a2.846,2.846,0,0,1-.19-.835,3.023,3.023,0,0,1-2.256.981A2.8,2.8,0,0,1,39.51-.516,2.145,2.145,0,0,1,38.76-2.2,2.24,2.24,0,0,1,39.7-4.12,4.437,4.437,0,0,1,42.349-4.8h1.318v-.623a1.522,1.522,0,0,0-.425-1.132A1.707,1.707,0,0,0,41.99-6.98a1.976,1.976,0,0,0-1.216.366,1.079,1.079,0,0,0-.491.886H38.921a1.87,1.87,0,0,1,.421-1.146,2.874,2.874,0,0,1,1.143-.875,3.844,3.844,0,0,1,1.586-.322,3.133,3.133,0,0,1,2.146.685A2.47,2.47,0,0,1,45.022-5.5v3.647A4.459,4.459,0,0,0,45.3-.117V0ZM41.631-1.033a2.381,2.381,0,0,0,1.208-.33,1.994,1.994,0,0,0,.828-.857V-3.845H42.6q-2.49,0-2.49,1.458a1.234,1.234,0,0,0,.425,1A1.633,1.633,0,0,0,41.631-1.033Z" transform="translate(1063.14 2813.19)" fill="#1a0f91"/>
    <path id="Trazado_120547" data-name="Trazado 120547" d="M5.149-4.314h-2.5V0H1.23V-10.664h3.53a4.178,4.178,0,0,1,2.772.82A2.951,2.951,0,0,1,8.5-7.456,2.871,2.871,0,0,1,7.965-5.72a3.214,3.214,0,0,1-1.5,1.106l2.5,4.526V0H7.463Zm-2.5-1.15H4.8a2.437,2.437,0,0,0,1.666-.543A1.836,1.836,0,0,0,7.09-7.46,1.933,1.933,0,0,0,6.5-8.979a2.5,2.5,0,0,0-1.7-.536H2.644ZM13.55.146A3.463,3.463,0,0,1,10.928-.912,3.928,3.928,0,0,1,9.917-3.743v-.249a4.756,4.756,0,0,1,.45-2.106,3.514,3.514,0,0,1,1.26-1.45,3.167,3.167,0,0,1,1.754-.524,2.968,2.968,0,0,1,2.4,1.018,4.408,4.408,0,0,1,.857,2.915v.564H11.272a2.817,2.817,0,0,0,.685,1.893,2.153,2.153,0,0,0,1.666.721,2.36,2.36,0,0,0,1.216-.293,3.055,3.055,0,0,0,.872-.776l.828.645A3.328,3.328,0,0,1,13.55.146Zm-.168-7.1a1.807,1.807,0,0,0-1.377.6,2.9,2.9,0,0,0-.688,1.674h3.97v-.1a2.581,2.581,0,0,0-.557-1.6A1.7,1.7,0,0,0,13.381-6.958ZM22.822-2.1a1,1,0,0,0-.414-.853,3.983,3.983,0,0,0-1.443-.524,6.822,6.822,0,0,1-1.633-.527,2.324,2.324,0,0,1-.894-.732,1.752,1.752,0,0,1-.289-1.011A2.056,2.056,0,0,1,18.973-7.4a3.218,3.218,0,0,1,2.106-.674,3.311,3.311,0,0,1,2.186.7A2.21,2.21,0,0,1,24.1-5.6H22.742a1.223,1.223,0,0,0-.472-.959,1.77,1.77,0,0,0-1.19-.4,1.852,1.852,0,0,0-1.157.322,1.014,1.014,0,0,0-.417.842.822.822,0,0,0,.388.74,4.776,4.776,0,0,0,1.4.476,7.308,7.308,0,0,1,1.644.542,2.4,2.4,0,0,1,.934.758,1.864,1.864,0,0,1,.3,1.08,2.028,2.028,0,0,1-.85,1.7,3.564,3.564,0,0,1-2.2.641A3.991,3.991,0,0,1,19.438-.19a2.74,2.74,0,0,1-1.146-.941,2.268,2.268,0,0,1-.414-1.307h1.355a1.4,1.4,0,0,0,.546,1.08,2.117,2.117,0,0,0,1.344.4,2.185,2.185,0,0,0,1.234-.311A.956.956,0,0,0,22.822-2.1ZM30.835-.784a2.878,2.878,0,0,1-2.322.93,2.464,2.464,0,0,1-1.93-.736,3.186,3.186,0,0,1-.67-2.179V-7.925h1.355v5.12q0,1.8,1.465,1.8A2.028,2.028,0,0,0,30.8-2.161V-7.925h1.355V0H30.864ZM35.684,0H34.329V-11.25h1.355ZM39.69-9.844v1.919h1.479v1.047H39.69v4.921a1.1,1.1,0,0,0,.2.715A.832.832,0,0,0,40.562-1a3.281,3.281,0,0,0,.645-.088V0a3.951,3.951,0,0,1-1.04.146A1.687,1.687,0,0,1,38.8-.4a2.36,2.36,0,0,1-.461-1.56V-6.877H36.892V-7.925h1.443V-9.844ZM47.644,0a2.846,2.846,0,0,1-.19-.835A3.023,3.023,0,0,1,45.2.146a2.8,2.8,0,0,1-1.923-.663A2.145,2.145,0,0,1,42.524-2.2a2.24,2.24,0,0,1,.941-1.923A4.437,4.437,0,0,1,46.113-4.8h1.318v-.623a1.522,1.522,0,0,0-.425-1.132,1.707,1.707,0,0,0-1.252-.421,1.976,1.976,0,0,0-1.216.366,1.079,1.079,0,0,0-.491.886H42.686a1.87,1.87,0,0,1,.421-1.146,2.874,2.874,0,0,1,1.143-.875,3.844,3.844,0,0,1,1.586-.322,3.133,3.133,0,0,1,2.146.685A2.47,2.47,0,0,1,48.787-5.5v3.647a4.459,4.459,0,0,0,.278,1.736V0ZM45.4-1.033a2.381,2.381,0,0,0,1.208-.33,1.994,1.994,0,0,0,.828-.857V-3.845H46.37q-2.49,0-2.49,1.458a1.234,1.234,0,0,0,.425,1A1.633,1.633,0,0,0,45.4-1.033Zm5.186-3a4.642,4.642,0,0,1,.864-2.933,2.733,2.733,0,0,1,2.263-1.11,2.748,2.748,0,0,1,2.2.952V-11.25h1.355V0H56.023l-.066-.85a2.759,2.759,0,0,1-2.263,1A2.707,2.707,0,0,1,51.449-.981a4.7,4.7,0,0,1-.868-2.944Zm1.355.154a3.515,3.515,0,0,0,.557,2.109A1.8,1.8,0,0,0,54.031-1a1.977,1.977,0,0,0,1.882-1.157V-5.8a1.992,1.992,0,0,0-1.868-1.121,1.808,1.808,0,0,0-1.553.769A3.87,3.87,0,0,0,51.936-3.875Zm7.075-.161a4.681,4.681,0,0,1,.458-2.095,3.415,3.415,0,0,1,1.274-1.436,3.469,3.469,0,0,1,1.864-.505,3.342,3.342,0,0,1,2.618,1.121,4.311,4.311,0,0,1,1,2.981v.1A4.722,4.722,0,0,1,65.782-1.8,3.365,3.365,0,0,1,64.515-.366a3.509,3.509,0,0,1-1.893.513A3.334,3.334,0,0,1,60.011-.974a4.29,4.29,0,0,1-1-2.966Zm1.362.161a3.39,3.39,0,0,0,.612,2.117,1.957,1.957,0,0,0,1.637.8,1.945,1.945,0,0,0,1.641-.809,3.707,3.707,0,0,0,.608-2.267,3.384,3.384,0,0,0-.619-2.113,1.968,1.968,0,0,0-1.644-.809,1.946,1.946,0,0,0-1.619.8A3.68,3.68,0,0,0,60.374-3.875ZM72.539-2.1a1,1,0,0,0-.414-.853,3.983,3.983,0,0,0-1.443-.524,6.822,6.822,0,0,1-1.633-.527,2.324,2.324,0,0,1-.894-.732,1.752,1.752,0,0,1-.289-1.011A2.056,2.056,0,0,1,68.69-7.4,3.218,3.218,0,0,1,70.8-8.071a3.311,3.311,0,0,1,2.186.7,2.21,2.21,0,0,1,.839,1.78H72.458a1.223,1.223,0,0,0-.472-.959,1.77,1.77,0,0,0-1.19-.4,1.852,1.852,0,0,0-1.157.322,1.014,1.014,0,0,0-.417.842.822.822,0,0,0,.388.74,4.776,4.776,0,0,0,1.4.476,7.308,7.308,0,0,1,1.644.542,2.4,2.4,0,0,1,.934.758,1.864,1.864,0,0,1,.3,1.08,2.028,2.028,0,0,1-.85,1.7,3.564,3.564,0,0,1-2.2.641A3.991,3.991,0,0,1,69.155-.19a2.74,2.74,0,0,1-1.146-.941A2.268,2.268,0,0,1,67.6-2.439H68.95a1.4,1.4,0,0,0,.546,1.08,2.117,2.117,0,0,0,1.344.4,2.185,2.185,0,0,0,1.234-.311A.956.956,0,0,0,72.539-2.1Z" transform="translate(909.722 3064.138)" fill="#1a0f91"/>
    <path id="Trazado_120548" data-name="Trazado 120548" d="M7.126-2.791H2.659L1.655,0H.205L4.277-10.664h1.23L9.587,0H8.145ZM3.083-3.94H6.709L4.893-8.928Zm9.009-3.984.044,1a2.888,2.888,0,0,1,2.373-1.143q2.512,0,2.534,2.834V0H15.688V-5.244A1.824,1.824,0,0,0,15.3-6.511a1.57,1.57,0,0,0-1.2-.41,1.956,1.956,0,0,0-1.157.352,2.387,2.387,0,0,0-.776.923V0H10.811V-7.925ZM23.979,0a2.846,2.846,0,0,1-.19-.835,3.023,3.023,0,0,1-2.256.981,2.8,2.8,0,0,1-1.923-.663A2.145,2.145,0,0,1,18.86-2.2,2.24,2.24,0,0,1,19.8-4.12,4.437,4.437,0,0,1,22.449-4.8h1.318v-.623a1.522,1.522,0,0,0-.425-1.132A1.707,1.707,0,0,0,22.09-6.98a1.976,1.976,0,0,0-1.216.366,1.079,1.079,0,0,0-.491.886H19.021a1.87,1.87,0,0,1,.421-1.146,2.874,2.874,0,0,1,1.143-.875,3.844,3.844,0,0,1,1.586-.322,3.133,3.133,0,0,1,2.146.685A2.47,2.47,0,0,1,25.122-5.5v3.647A4.459,4.459,0,0,0,25.4-.117V0ZM21.731-1.033a2.381,2.381,0,0,0,1.208-.33,1.994,1.994,0,0,0,.828-.857V-3.845H22.705q-2.49,0-2.49,1.458a1.234,1.234,0,0,0,.425,1A1.633,1.633,0,0,0,21.731-1.033ZM22.983-11.25h1.641L22.661-9.1l-1.091,0ZM28.718,0H27.363V-11.25h1.355Zm3.64,0H31V-7.925h1.355ZM30.894-10.027a.809.809,0,0,1,.2-.557.756.756,0,0,1,.6-.227.768.768,0,0,1,.6.227.8.8,0,0,1,.205.557.774.774,0,0,1-.205.549.782.782,0,0,1-.6.22.77.77,0,0,1-.6-.22A.782.782,0,0,1,30.894-10.027ZM39.141-2.1a1,1,0,0,0-.414-.853,3.983,3.983,0,0,0-1.443-.524,6.822,6.822,0,0,1-1.633-.527,2.324,2.324,0,0,1-.894-.732,1.752,1.752,0,0,1-.289-1.011A2.056,2.056,0,0,1,35.292-7.4,3.218,3.218,0,0,1,37.4-8.071a3.311,3.311,0,0,1,2.186.7,2.21,2.21,0,0,1,.839,1.78H39.06a1.223,1.223,0,0,0-.472-.959,1.77,1.77,0,0,0-1.19-.4,1.852,1.852,0,0,0-1.157.322,1.014,1.014,0,0,0-.417.842.822.822,0,0,0,.388.74,4.776,4.776,0,0,0,1.4.476,7.308,7.308,0,0,1,1.644.542,2.4,2.4,0,0,1,.934.758,1.864,1.864,0,0,1,.3,1.08,2.028,2.028,0,0,1-.85,1.7,3.564,3.564,0,0,1-2.2.641A3.991,3.991,0,0,1,35.757-.19a2.74,2.74,0,0,1-1.146-.941A2.268,2.268,0,0,1,34.2-2.439h1.355a1.4,1.4,0,0,0,.546,1.08,2.117,2.117,0,0,0,1.344.4,2.185,2.185,0,0,0,1.234-.311A.956.956,0,0,0,39.141-2.1ZM43.733,0H42.378V-7.925h1.355ZM42.268-10.027a.809.809,0,0,1,.2-.557.756.756,0,0,1,.6-.227.768.768,0,0,1,.6.227.8.8,0,0,1,.205.557.774.774,0,0,1-.205.549.782.782,0,0,1-.6.22.77.77,0,0,1-.6-.22A.782.782,0,0,1,42.268-10.027ZM50.515-2.1a1,1,0,0,0-.414-.853,3.983,3.983,0,0,0-1.443-.524,6.822,6.822,0,0,1-1.633-.527,2.324,2.324,0,0,1-.894-.732,1.752,1.752,0,0,1-.289-1.011A2.056,2.056,0,0,1,46.666-7.4a3.218,3.218,0,0,1,2.106-.674,3.311,3.311,0,0,1,2.186.7A2.21,2.21,0,0,1,51.8-5.6H50.435a1.223,1.223,0,0,0-.472-.959,1.77,1.77,0,0,0-1.19-.4,1.852,1.852,0,0,0-1.157.322,1.014,1.014,0,0,0-.417.842.822.822,0,0,0,.388.74,4.776,4.776,0,0,0,1.4.476,7.308,7.308,0,0,1,1.644.542,2.4,2.4,0,0,1,.934.758,1.864,1.864,0,0,1,.3,1.08,2.028,2.028,0,0,1-.85,1.7,3.564,3.564,0,0,1-2.2.641A3.991,3.991,0,0,1,47.131-.19a2.74,2.74,0,0,1-1.146-.941,2.268,2.268,0,0,1-.414-1.307h1.355a1.4,1.4,0,0,0,.546,1.08,2.117,2.117,0,0,0,1.344.4,2.185,2.185,0,0,0,1.234-.311A.956.956,0,0,0,50.515-2.1Z" transform="translate(768.208 2813.19)" fill="#1a0f91"/>
    <g id="Grupo_54847" data-name="Grupo 54847" transform="translate(823.739 2766.379)" clip-path="url(#clip-path)">
      <g id="Grupo_54846" data-name="Grupo 54846" transform="translate(-19.772 64.651)">
        <g id="Grupo_54842" data-name="Grupo 54842" transform="translate(0 91.327)">
          <path id="Trazado_119414" data-name="Trazado 119414" d="M167.709,274.56H84.13L91.549,356.7a4.2,4.2,0,0,0,4.19,3.824h71.969Z" transform="translate(-80.175 -270.983)" fill="url(#linear-gradient-4)"/>
          <path id="Trazado_119415" data-name="Trazado 119415" d="M140.7,364.251H107.273l-3.815-41.917a3.714,3.714,0,0,1,3.659-4.044h32.019a3.7,3.7,0,0,1,3.705,3.9Z" transform="translate(-81.82 -274.708)" fill="url(#linear-gradient-5)"/>
          <path id="Trazado_119416" data-name="Trazado 119416" d="M161.97,278.408H82.9a3.1,3.1,0,0,1-2.891-4.208l.6-1.564a3.092,3.092,0,0,1,2.891-1.985H161.97Z" transform="translate(-79.807 -270.65)" fill="url(#linear-gradient-6)"/>
          <rect id="Rectángulo_29679" data-name="Rectángulo 29679" width="8.956" height="13.732" transform="translate(31.418 15.515)" fill="url(#linear-gradient-7)"/>
          <rect id="Rectángulo_29680" data-name="Rectángulo 29680" width="8.956" height="13.732" transform="translate(48.132 15.515)" fill="url(#linear-gradient-8)"/>
          <rect id="Rectángulo_29681" data-name="Rectángulo 29681" width="8.956" height="13.732" transform="translate(14.704 15.515)" fill="#fff" opacity="0.76"/>
        </g>
        <path id="Trazado_119417" data-name="Trazado 119417" d="M144.82,175.37l9.99,176.708H320.933L328.1,175.37Z" transform="translate(-85.344 -171.208)" fill="url(#linear-gradient-9)"/>
        <path id="Trazado_119418" data-name="Trazado 119418" d="M328.349,178.569h-184.8a2.04,2.04,0,0,1-1.958-1.445l-1.134-3.659a2.049,2.049,0,0,1,1.958-2.644h186.5a2.04,2.04,0,0,1,2.022,2.351l-.567,3.659a2.049,2.049,0,0,1-2.022,1.738Z" transform="translate(-84.965 -170.82)" fill="url(#linear-gradient-10)"/>
        <path id="Trazado_119419" data-name="Trazado 119419" d="M326.571,216.105l1.015-25.075H145.71l1.418,25.075Z" transform="translate(-85.42 -172.541)" fill="url(#linear-gradient-11)"/>
        <rect id="Rectángulo_29682" data-name="Rectángulo 29682" width="4.181" height="25.075" transform="translate(80.371 18.498)" fill="url(#linear-gradient-12)"/>
        <rect id="Rectángulo_29683" data-name="Rectángulo 29683" width="4.181" height="25.075" transform="translate(109.032 18.498)" fill="url(#linear-gradient-13)"/>
        <rect id="Rectángulo_29684" data-name="Rectángulo 29684" width="4.181" height="25.075" transform="translate(137.685 18.498)" fill="url(#linear-gradient-14)"/>
        <rect id="Rectángulo_29685" data-name="Rectángulo 29685" width="4.181" height="25.075" transform="translate(166.337 18.498)" fill="url(#linear-gradient-15)"/>
        <rect id="Rectángulo_29686" data-name="Rectángulo 29686" width="4.181" height="25.075" transform="translate(194.989 18.498)" fill="url(#linear-gradient-16)"/>
        <rect id="Rectángulo_29687" data-name="Rectángulo 29687" width="4.181" height="25.075" transform="translate(223.651 18.498)" fill="url(#linear-gradient-17)"/>
        <g id="Grupo_54843" data-name="Grupo 54843" transform="translate(82.164 53.719)">
          <rect id="Rectángulo_29688" data-name="Rectángulo 29688" width="43.015" height="18.507" fill="url(#linear-gradient-18)"/>
          <rect id="Rectángulo_29689" data-name="Rectángulo 29689" width="39.832" height="15.525" transform="translate(1.592 1.784)" fill="url(#linear-gradient-19)"/>
        </g>
        <g id="Grupo_54844" data-name="Grupo 54844" transform="translate(129.158 53.719)">
          <rect id="Rectángulo_29690" data-name="Rectángulo 29690" width="43.015" height="18.507" transform="translate(0)" fill="url(#linear-gradient-20)"/>
          <rect id="Rectángulo_29691" data-name="Rectángulo 29691" width="39.832" height="15.525" transform="translate(1.592 1.784)" fill="url(#linear-gradient-21)"/>
        </g>
        <g id="Grupo_54845" data-name="Grupo 54845" transform="translate(176.153 53.719)">
          <rect id="Rectángulo_29692" data-name="Rectángulo 29692" width="43.015" height="18.507" transform="translate(0)" fill="url(#linear-gradient-22)"/>
          <rect id="Rectángulo_29693" data-name="Rectángulo 29693" width="39.832" height="15.525" transform="translate(1.601 1.784)" fill="url(#linear-gradient-23)"/>
        </g>
        <rect id="Rectángulo_29694" data-name="Rectángulo 29694" width="81.191" height="69.847" transform="translate(91.12 115.204)" fill="url(#linear-gradient-24)"/>
        <path id="Trazado_119420" data-name="Trazado 119420" d="M172.227,294.14h14.921v72.271h-4.894a10.063,10.063,0,0,1-10.063-10.063V294.14Z" transform="translate(-87.675 -181.324)" fill="url(#linear-gradient-25)"/>
        <path id="Trazado_119421" data-name="Trazado 119421" d="M210.631,320.24h16.284A20.684,20.684,0,0,1,247.6,340.924V368.6H195.07V335.8a15.552,15.552,0,0,1,15.561-15.561Z" transform="translate(-89.624 -183.547)" fill="url(#linear-gradient-26)"/>
        <path id="Trazado_119422" data-name="Trazado 119422" d="M165.319,262.462l2.141,36.383h83.56v64.477h54.441a5.489,5.489,0,0,0,5.489-5.251l3.806-93.989a3.925,3.925,0,0,0-3.879-4.089L169.29,258.3a3.934,3.934,0,0,0-3.97,4.162Z" transform="translate(-87.089 -178.271)" fill="url(#linear-gradient-27)"/>
        <path id="Trazado_119423" data-name="Trazado 119423" d="M166.824,288.292H259.46V274.56H166.01Z" transform="translate(-87.149 -179.656)" fill="url(#linear-gradient-28)"/>
        <rect id="Rectángulo_29695" data-name="Rectángulo 29695" width="3.586" height="13.732" transform="translate(93.508 94.904)" fill="url(#linear-gradient-29)"/>
        <rect id="Rectángulo_29696" data-name="Rectángulo 29696" width="3.586" height="13.732" transform="translate(109.627 94.904)" fill="url(#linear-gradient-29)"/>
        <rect id="Rectángulo_29697" data-name="Rectángulo 29697" width="3.586" height="13.732" transform="translate(125.746 94.904)" fill="url(#linear-gradient-31)"/>
        <rect id="Rectángulo_29698" data-name="Rectángulo 29698" width="3.586" height="13.732" transform="translate(141.865 94.904)" fill="url(#linear-gradient-29)"/>
        <rect id="Rectángulo_29699" data-name="Rectángulo 29699" width="3.586" height="13.732" transform="translate(157.985 94.904)" fill="url(#linear-gradient-29)"/>
      </g>
    </g>
  </g>
</svg>
